<svg width="1288" height="1140" viewBox="0 0 1288 1140" fill="none" xmlns="http://www.w3.org/2000/svg">
<g clip-path="url(#clip0_1_318)">
<g clip-path="url(#clip1_1_318)">
<path d="M928.071 197.865V434.91C928.071 463.052 913.052 489.065 888.681 503.136L764.91 574.594C764.888 574.086 764.877 573.59 764.866 573.083C757.753 567.316 742.624 553.443 733.989 530.076C724.164 503.511 728.542 480.409 730.681 471.631C735.919 471.046 748.358 468.951 760.455 459.501C772.254 450.282 777.316 439.067 779.201 434.138C784.351 410.241 789.49 386.356 794.64 362.46C795.588 356.99 796.294 349.833 795.742 341.508C795.246 334.064 793.868 327.712 792.434 322.761C801.852 318.791 812.306 313.752 823.311 307.323C833.379 301.445 842.19 295.424 849.777 289.679C853.449 286.757 861.819 279.313 866.318 266.521C870.222 255.417 869.284 245.79 868.523 241.158C862.271 218.001 856.029 194.843 849.777 171.686C846.854 163.404 840.679 149.454 827.722 136.398C818.999 127.609 810.078 122.117 803.462 118.754C780.161 108.929 752.482 99.3679 720.756 92.2884C705.252 88.8258 690.486 86.3336 676.647 84.5692C662.079 82.5071 642.815 81.1838 620.407 83.4664C598.407 85.705 580.08 90.7445 566.373 95.5966C548.971 101.717 491.111 124.521 456.099 186.021C439.866 214.538 433.9 241.974 431.695 261.625C450.739 242.768 473.114 222.665 499.105 202.562C529.486 179.052 558.742 160.239 585.119 145.22C584.921 157.67 585.825 173.119 589.53 190.432C591.945 201.735 595.099 211.704 598.352 220.206C569.493 231.399 537.878 245.459 504.619 263.213C477.9 277.471 453.838 292.149 432.401 306.462C433.592 315.262 435.51 324.823 438.455 334.891C444.873 356.836 454.059 373.873 461.612 385.617C472.077 399.291 481.032 409.767 486.975 416.494C507.575 439.806 522.142 452.322 523.366 472.734C523.509 475.138 523.432 477.089 523.366 478.247C521.701 486.176 517.455 501.041 505.722 515.74C492.379 532.469 476.444 540.056 468.626 543.154L399.319 503.136C374.948 489.065 359.929 463.052 359.929 434.91V197.865C359.929 169.712 374.948 143.709 399.319 129.638L604.605 11.1157C628.986 -2.9663 659.014 -2.9663 683.395 11.1157L888.681 129.638C913.052 143.709 928.071 169.712 928.071 197.865Z" fill="url(#paint0_linear_1_318)"/>
<path d="M764.865 404.364C763.762 408.775 759.351 434.138 754.941 438.549C750.53 442.96 743.957 444.68 735.091 447.371C722.2 451.285 704.986 453.237 654.591 440.754C642.009 437.634 624.983 433.035 604.968 426.419C613.602 438.273 624.486 451.528 638.05 465.015C649.552 476.45 660.822 485.923 671.132 493.686C677.826 498.174 688.456 506.511 697.598 520.152C706.629 533.627 710.313 546.474 711.934 554.337C712.375 559.608 713.886 568.86 719.653 578.597C723.645 585.323 728.298 589.988 731.783 592.932C720.37 591.576 706.828 588.985 692.084 584.11C666.964 575.807 647.809 564.008 634.742 554.337C626.03 547.775 614.297 540.376 599.454 534.487C569.824 522.732 543.115 523.096 527.776 524.563C535.297 512.774 546.633 491.602 550.934 462.809C556.194 427.588 548.166 399.391 543.214 385.617C539.598 386.125 516.583 388.959 496.899 372.384C475.892 354.697 475.892 329.4 475.947 326.069C475.804 323.61 475.506 313.785 482.564 305.117C491.959 293.572 506.328 294.013 507.927 294.09C511.963 294.575 517.432 295.722 523.365 298.501C533.929 303.452 540.215 310.896 543.214 315.042C546.843 315.263 557.407 315.406 567.475 308.426C582.803 297.817 583.917 279.787 584.016 277.549C592.364 285.941 607.736 298.832 630.331 305.117C683.053 319.784 727.471 285.213 732.886 280.857C734.672 279.324 748.037 268.109 759.351 272.035C771.912 276.402 780.678 298.997 770.379 324.967C771.482 328.275 774.459 334.108 775.893 341.508C778.098 353.638 774.823 370.774 764.865 404.364Z" stroke="black" stroke-width="1.10274" stroke-miterlimit="10"/>
<path d="M775.893 341.508C778.098 353.638 774.823 370.774 764.865 404.364C763.762 408.775 759.351 434.138 754.941 438.549C750.53 442.96 743.957 444.68 735.091 447.371C722.2 451.285 704.986 453.237 654.591 440.754C642.009 437.634 624.983 433.035 604.968 426.419C613.602 438.273 624.486 451.528 638.05 465.015C649.552 476.45 660.822 485.923 671.132 493.686C677.826 498.174 688.456 506.511 697.598 520.152C706.629 533.627 710.313 546.474 711.934 554.337C712.375 559.608 713.886 568.86 719.653 578.597C723.645 585.323 728.298 589.988 731.783 592.932C720.37 591.576 706.828 588.985 692.084 584.11C666.964 575.807 647.809 564.008 634.742 554.337C626.03 547.775 614.297 540.376 599.454 534.487C569.824 522.732 543.115 523.096 527.776 524.563C535.297 512.774 546.633 491.602 550.934 462.809C556.194 427.588 548.166 399.391 543.214 385.617C539.598 386.125 516.583 388.959 496.899 372.384C475.892 354.697 475.892 329.4 475.947 326.069C475.804 323.61 475.506 313.785 482.564 305.117C491.959 293.572 506.328 294.013 507.927 294.09C511.963 294.575 517.432 295.722 523.365 298.501C533.929 303.452 540.215 310.896 543.214 315.042C546.843 315.263 557.407 315.406 567.475 308.426C582.803 297.817 583.917 279.787 584.016 277.549C592.364 285.941 607.736 298.832 630.331 305.117C683.053 319.784 727.471 285.213 732.886 280.857C734.672 279.324 748.037 268.109 759.351 272.035C771.912 276.402 780.678 298.997 770.379 324.967C771.482 328.275 774.459 334.108 775.893 341.508Z" stroke="black" stroke-width="1.10274" stroke-miterlimit="10"/>
<path d="M846.468 251.082C841.329 258.195 827.479 259.706 813.386 252.185C803.075 247.609 790.901 243.242 776.996 240.055C737.528 231.024 703.432 235.997 682.16 241.158C678.554 241.61 657.602 243.871 640.256 229.028C629.019 219.412 625.071 207.568 623.715 202.562C621.631 196.53 619.657 189.506 618.201 181.61C615.863 168.895 615.554 157.603 615.996 148.528C616.128 145.142 617.109 129.075 630.331 116.548C646.122 101.595 666.303 104.054 668.927 104.418C682.954 105.179 698.514 106.833 715.242 109.932C744.388 115.335 769.21 123.65 789.126 131.987C796.69 134.766 808.622 140.378 818.9 151.836C822.803 156.192 826.299 161.198 829.927 168.377C842.785 193.806 847.185 226.359 848.674 240.055C849.446 246.385 847.394 249.792 846.468 251.082Z" stroke="black" stroke-width="1.10274" stroke-miterlimit="10"/>
<path d="M846.468 251.082C841.329 258.195 827.479 259.706 813.386 252.185C803.075 247.609 790.901 243.242 776.996 240.055C737.528 231.024 703.432 235.997 682.16 241.158C678.554 241.61 657.602 243.871 640.256 229.028C629.019 219.412 625.071 207.568 623.715 202.562C621.631 196.53 619.657 189.506 618.201 181.61C615.863 168.895 615.554 157.603 615.996 148.528C616.128 145.142 617.109 129.075 630.331 116.548C646.122 101.595 666.303 104.054 668.927 104.418C682.954 105.179 698.514 106.833 715.242 109.932C744.388 115.335 769.21 123.65 789.126 131.987C796.69 134.766 808.622 140.378 818.9 151.836C822.803 156.192 826.299 161.198 829.927 168.377C842.785 193.806 847.185 226.359 848.674 240.055C849.446 246.385 847.394 249.792 846.468 251.082Z" stroke="black" stroke-width="1.10274" stroke-miterlimit="10"/>
<path d="M598.352 220.206C569.493 231.399 537.878 245.459 504.619 263.213C477.9 277.471 453.838 292.149 432.401 306.462C432.158 304.588 431.926 302.647 431.728 300.651C431.143 294.906 430.769 288.653 430.735 281.959C430.702 274.77 431.066 268.098 431.651 262.055C431.662 261.912 431.684 261.768 431.695 261.625C450.739 242.768 473.114 222.665 499.105 202.562C529.486 179.052 558.742 160.239 585.119 145.22C584.921 157.67 585.825 173.119 589.53 190.432C591.945 201.735 595.099 211.704 598.352 220.206Z" fill="#FEFFFF"/>
<path d="M868.523 241.158C862.27 218 856.029 194.843 849.776 171.685C846.854 163.404 840.678 149.454 827.721 136.398C818.999 127.609 810.077 122.117 803.461 118.754C780.16 108.928 752.481 99.3676 720.755 92.288C705.251 88.8254 690.485 86.3332 676.646 84.5688C662.079 82.5067 642.814 81.1834 620.406 83.4661C598.407 85.7047 580.079 90.7442 566.372 95.5962C548.971 101.716 491.11 124.521 456.098 186.021C439.866 214.538 433.9 241.974 431.694 261.625C450.739 242.768 473.113 222.665 499.105 202.562C529.485 179.052 558.741 160.239 585.119 145.22C584.92 157.669 585.824 173.119 589.529 190.432C591.944 201.735 595.098 211.704 598.351 220.206C569.493 231.399 537.877 245.459 504.619 263.213C477.899 277.471 453.837 292.149 432.4 306.462C433.591 315.262 435.51 324.823 438.454 334.891C444.872 356.835 454.058 373.873 461.612 385.617C472.077 399.291 481.031 409.767 486.975 416.493C507.574 439.805 522.141 452.322 523.365 472.733C523.508 475.137 523.431 477.089 523.365 478.247C521.7 486.176 517.454 501.041 505.721 515.74C492.378 532.469 476.444 540.055 468.625 543.154L594.955 616.089L604.604 621.658C628.986 635.729 659.013 635.729 683.395 621.658L693.044 616.089L764.909 574.593C764.887 574.086 764.876 573.59 764.865 573.083C757.752 567.315 742.623 553.443 733.988 530.076C724.163 503.511 728.541 480.408 730.68 471.63C735.918 471.046 748.357 468.951 760.454 459.5C772.253 450.281 777.315 439.067 779.201 434.137C784.35 410.241 789.489 386.356 794.639 362.459C795.587 356.99 796.293 349.833 795.742 341.507C795.246 334.064 793.867 327.712 792.434 322.761C801.851 318.791 812.305 313.751 823.31 307.322C833.378 301.445 842.189 295.424 849.776 289.678C853.448 286.756 861.818 279.313 866.317 266.521C870.221 255.416 869.284 245.789 868.523 241.158ZM764.865 404.363C763.762 408.774 759.351 434.137 754.94 438.548C750.529 442.959 743.957 444.68 735.091 447.37C722.2 451.285 704.986 453.237 654.591 440.754C642.009 437.633 624.983 433.035 604.968 426.418C613.602 438.273 624.486 451.528 638.05 465.014C649.552 476.449 660.822 485.922 671.132 493.685C677.826 498.173 688.456 506.51 697.598 520.151C706.629 533.626 710.313 546.473 711.934 554.336C712.375 559.607 713.885 568.859 719.653 578.596C723.645 585.323 728.298 589.988 731.783 592.932C720.37 591.575 706.828 588.984 692.084 584.11C666.964 575.806 647.809 564.007 634.742 554.336C626.03 547.775 614.297 540.375 599.454 534.487C569.824 522.731 543.115 523.095 527.776 524.562C535.297 512.774 546.633 491.601 550.934 462.809C556.194 427.587 548.166 399.39 543.214 385.617C539.597 386.124 516.583 388.958 496.899 372.384C475.892 354.696 475.892 329.399 475.947 326.069C475.804 323.61 475.506 313.784 482.564 305.117C491.959 293.571 506.328 294.012 507.927 294.089C511.963 294.575 517.432 295.721 523.365 298.5C533.929 303.452 540.215 310.895 543.214 315.041C546.842 315.262 557.407 315.405 567.475 308.425C582.803 297.817 583.917 279.787 584.016 277.548C592.364 285.94 607.736 298.831 630.331 305.117C683.053 319.783 727.471 285.212 732.886 280.857C734.672 279.324 748.037 268.109 759.351 272.035C771.912 276.401 780.678 298.997 770.379 324.966C771.482 328.274 774.459 334.108 775.892 341.507C778.098 353.637 774.823 370.774 764.865 404.363ZM846.468 251.083C841.329 258.195 827.479 259.706 813.386 252.185C803.075 247.609 790.901 243.242 776.995 240.055C737.528 231.024 703.431 235.997 682.16 241.158C678.554 241.61 657.602 243.871 640.255 229.028C629.019 219.412 625.071 207.568 623.714 202.562C621.63 196.53 619.656 189.506 618.201 181.61C615.863 168.895 615.554 157.603 615.995 148.528C616.128 145.142 617.109 129.075 630.331 116.548C646.122 101.595 666.302 104.054 668.927 104.418C682.954 105.179 698.513 106.833 715.242 109.932C744.387 115.335 769.21 123.65 789.125 131.987C796.69 134.766 808.622 140.379 818.899 151.836C822.803 156.192 826.299 161.198 829.927 168.377C842.785 193.806 847.185 226.359 848.673 240.055C849.445 246.385 847.394 249.792 846.468 251.083Z" fill="#0E0F27"/>
<path d="M731.783 592.932C720.37 591.576 706.828 588.985 692.084 584.11C666.964 575.807 647.809 564.008 634.742 554.337C626.03 547.775 614.297 540.376 599.454 534.487C569.824 522.732 543.115 523.096 527.776 524.563C535.297 512.774 546.633 491.602 550.934 462.809C556.194 427.588 548.166 399.391 543.215 385.617C539.598 386.125 516.583 388.959 496.899 372.384C475.892 354.697 475.892 329.4 475.947 326.069C475.804 323.61 475.506 313.785 482.564 305.117C491.959 293.572 506.328 294.013 507.927 294.09C511.963 294.575 517.432 295.722 523.365 298.501C533.929 303.452 540.215 310.896 543.215 315.042C546.843 315.263 557.407 315.406 567.475 308.426C582.803 297.817 583.917 279.787 584.016 277.549C592.364 285.941 607.736 298.832 630.331 305.117C683.053 319.784 727.471 285.213 732.886 280.857C734.672 279.324 748.037 268.109 759.351 272.035C771.912 276.402 780.678 298.997 770.379 324.967C771.482 328.275 774.459 334.108 775.893 341.508C778.098 353.638 774.823 370.774 764.865 404.364C763.762 408.775 759.351 434.138 754.941 438.549C750.53 442.96 743.957 444.68 735.091 447.371C722.2 451.285 704.986 453.237 654.591 440.754C642.009 437.634 624.983 433.035 604.968 426.419C613.602 438.273 624.486 451.528 638.05 465.015C649.552 476.45 660.822 485.923 671.132 493.686C677.826 498.174 688.456 506.511 697.598 520.152C706.629 533.627 710.313 546.474 711.934 554.337C712.375 559.608 713.886 568.86 719.653 578.597C723.645 585.323 728.298 589.988 731.783 592.932Z" fill="#FEFFFF"/>
<path d="M623.715 202.562C621.631 196.53 619.657 189.506 618.201 181.61C615.863 168.895 615.554 157.603 615.996 148.528C616.128 145.142 617.109 129.075 630.331 116.548C646.122 101.595 666.303 104.054 668.927 104.418C682.954 105.179 698.514 106.833 715.242 109.932C744.388 115.335 769.21 123.65 789.126 131.987C796.69 134.766 808.622 140.378 818.9 151.836C822.803 156.192 826.299 161.198 829.927 168.377C842.785 193.806 847.185 226.359 848.674 240.055C849.446 246.385 847.394 249.792 846.468 251.082C841.329 258.195 827.479 259.706 813.386 252.185C803.075 247.609 790.901 243.242 776.996 240.055C737.528 231.024 703.432 235.997 682.16 241.158C678.554 241.61 657.602 243.871 640.256 229.028C629.019 219.412 625.071 207.568 623.715 202.562Z" fill="#FEFFFF"/>
<path d="M550.15 161C550.15 193.531 564.302 225.694 570 238.192L614.109 227.164L592.606 147.767L587.092 142.805L550.15 161Z" fill="#0E0F27"/>
<path d="M437.672 286.712L434.363 305.459L574.411 236.538L570.552 219.445L437.672 286.712Z" fill="#0E0F27"/>
<path d="M431.055 269.069L555.113 165.411V158.243C515.966 186.731 436.899 244.367 433.812 247.014C431.606 258.592 431.606 263.555 431.055 269.069Z" fill="#0E0F27"/>
<path d="M512.476 218.11C510.761 215.449 511.401 211.915 513.939 210.023L529.535 198.398C532.948 195.854 537.803 196.732 540.109 200.311C542.414 203.891 541.206 208.674 537.478 210.73L520.444 220.122C517.672 221.651 514.19 220.772 512.476 218.11Z" fill="#0E0F27"/>
</g>
<path d="M1122.79 998.023C1117.92 998.023 1113.97 994.074 1113.97 989.201V773.913C1113.97 769.041 1117.92 765.091 1122.79 765.091H1152.4C1157.27 765.091 1161.22 769.041 1161.22 773.913V802.856C1161.22 807.728 1165.17 811.678 1170.04 811.678H1246.41C1248.75 811.678 1251 812.607 1252.65 814.262L1285.42 847.029C1287.07 848.683 1288 850.927 1288 853.267V956.435C1288 958.774 1287.07 961.018 1285.42 962.673L1252.65 995.44C1251 997.094 1248.75 998.023 1246.41 998.023H1122.79ZM1161.22 949.27C1161.22 954.142 1165.17 958.092 1170.04 958.092H1231.93C1236.8 958.092 1240.75 954.142 1240.75 949.27V860.431C1240.75 855.559 1236.8 851.609 1231.93 851.609H1170.04C1165.17 851.609 1161.22 855.559 1161.22 860.431V949.27Z" fill="white"/>
<path d="M913.697 964.004C912.043 962.35 911.113 960.106 911.113 957.766V900.124C911.113 895.346 914.917 891.436 919.693 891.305L1023.66 888.449C1028.43 888.318 1032.24 884.408 1032.24 879.63V860.431C1032.24 855.559 1028.29 851.609 1023.42 851.609H926.59C921.718 851.609 917.769 847.66 917.769 842.788V820.5C917.769 815.628 921.718 811.678 926.59 811.678H1039.23C1041.57 811.678 1043.82 812.608 1045.47 814.262L1076.91 845.698C1078.56 847.352 1079.49 849.596 1079.49 851.936V989.202C1079.49 994.074 1075.54 998.024 1070.67 998.024H951.371C949.031 998.024 946.787 997.094 945.133 995.44L913.697 964.004ZM966.396 920.1C961.849 920.51 958.365 924.321 958.365 928.886V950.602C958.365 955.474 962.315 959.424 967.187 959.424H1023.42C1028.29 959.424 1032.24 955.474 1032.24 950.602V923.821C1032.24 918.636 1027.79 914.569 1022.62 915.034L966.396 920.1Z" fill="white"/>
<path d="M728.286 998.023C723.414 998.023 719.464 994.074 719.464 989.201V773.913C719.464 769.041 723.414 765.091 728.286 765.091H757.894C762.766 765.091 766.716 769.041 766.716 773.913V949.27C766.716 954.142 770.666 958.092 775.538 958.092H836.425C841.298 958.092 845.247 954.142 845.247 949.27V913.672C845.247 908.8 849.197 904.851 854.069 904.851H879.019C883.891 904.851 887.84 908.8 887.84 913.672V989.201C887.84 994.074 883.891 998.023 879.019 998.023H728.286Z" fill="white"/>
<path d="M413.6 998.023C407.22 998.023 402.949 991.46 405.535 985.627L453.013 878.51C454.031 876.214 454.022 873.594 452.989 871.305L410.654 777.544C408.017 771.705 412.288 765.091 418.694 765.091H450.043C453.614 765.091 456.833 767.245 458.197 770.545L491.626 851.479C492.989 854.78 496.208 856.933 499.779 856.933H511.936C515.507 856.933 518.726 854.78 520.09 851.479L553.519 770.545C554.882 767.245 558.101 765.091 561.673 765.091H593.021C599.428 765.091 603.698 771.705 601.062 777.544L558.727 871.305C557.694 873.594 557.685 876.215 558.702 878.51L606.181 985.627C608.766 991.46 604.496 998.023 598.116 998.023H566.373C562.781 998.023 559.547 995.845 558.198 992.516L522.732 905.034C521.382 901.705 518.149 899.526 514.556 899.526H497.159C493.567 899.526 490.333 901.705 488.984 905.034L453.518 992.516C452.168 995.845 448.935 998.023 445.342 998.023H413.6Z" fill="white"/>
<path d="M229.145 998.023C224.273 998.023 220.323 994.074 220.323 989.201V773.913C220.323 769.041 224.273 765.091 229.145 765.091H373.888C378.76 765.091 382.71 769.041 382.71 773.913V796.201C382.71 801.073 378.76 805.023 373.888 805.023H276.397C271.525 805.023 267.575 808.972 267.575 813.844V850.773C267.575 855.645 271.525 859.595 276.397 859.595H357.25C362.122 859.595 366.072 863.545 366.072 868.417V889.373C366.072 894.246 362.122 898.195 357.25 898.195H276.397C271.525 898.195 267.575 902.145 267.575 907.017V949.27C267.575 954.142 271.525 958.092 276.397 958.092H377.216C382.088 958.092 386.038 962.042 386.038 966.914V989.201C386.038 994.074 382.088 998.023 377.216 998.023H229.145Z" fill="white"/>
<path d="M8.82191 998.023C3.9497 998.023 0 994.074 0 989.201V773.913C0 769.041 3.94971 765.091 8.82192 765.091H38.43C43.3022 765.091 47.2519 769.041 47.2519 773.913V848.111C47.2519 852.983 51.2016 856.933 56.0738 856.933H129.606C134.479 856.933 138.428 852.983 138.428 848.111V773.913C138.428 769.041 142.378 765.091 147.25 765.091H176.858C181.73 765.091 185.68 769.041 185.68 773.913V989.201C185.68 994.074 181.73 998.023 176.858 998.023H147.25C142.378 998.023 138.428 994.074 138.428 989.201V908.348C138.428 903.476 134.479 899.526 129.606 899.526H56.0738C51.2016 899.526 47.2519 903.476 47.2519 908.348V989.201C47.2519 994.074 43.3022 998.023 38.43 998.023H8.82191Z" fill="white"/>
<path d="M7.23397 1111.32V1048.03H14.8296V1076.15H44.4889V1048.03H52.0846V1111.32H44.4889V1083.02H14.8296V1111.32H7.23397ZM83.7558 1112.14C80.5608 1112.14 77.607 1111.45 74.8942 1110.06C72.2418 1108.67 70.1319 1106.62 68.5645 1103.91C67.0574 1101.14 66.3039 1097.79 66.3039 1093.87V1067.11H73.4474V1093.33C73.4474 1097.73 74.5325 1100.93 76.7027 1102.92C78.9332 1104.9 81.9172 1105.9 85.6548 1105.9C89.8746 1105.9 93.3409 1104.51 96.0536 1101.74C98.7663 1098.97 100.123 1094.84 100.123 1089.35V1067.11H107.266V1111.32H100.304V1103.82H99.0376C98.0731 1105.93 96.4153 1107.86 94.0642 1109.61C91.7132 1111.29 88.2771 1112.14 83.7558 1112.14ZM122.214 1111.32V1067.11H129.177V1072.62H130.443C131.286 1071.06 132.673 1069.61 134.602 1068.28C136.531 1066.96 139.244 1066.29 142.74 1066.29C146.176 1066.29 148.949 1067.05 151.059 1068.55C153.23 1070.06 154.797 1071.9 155.761 1074.07H157.027C158.052 1071.9 159.589 1070.06 161.639 1068.55C163.749 1067.05 166.673 1066.29 170.41 1066.29C173.364 1066.29 175.956 1066.9 178.187 1068.1C180.417 1069.31 182.165 1071.06 183.431 1073.35C184.758 1075.58 185.421 1078.26 185.421 1081.39V1111.32H178.277V1082.03C178.277 1079.07 177.403 1076.75 175.655 1075.06C173.967 1073.32 171.586 1072.44 168.511 1072.44C165.256 1072.44 162.573 1073.5 160.463 1075.61C158.414 1077.72 157.389 1080.76 157.389 1084.74V1111.32H150.246V1082.03C150.246 1079.07 149.371 1076.75 147.623 1075.06C145.935 1073.32 143.554 1072.44 140.48 1072.44C137.224 1072.44 134.542 1073.5 132.432 1075.61C130.382 1077.72 129.357 1080.76 129.357 1084.74V1111.32H122.214ZM213.575 1112.59C210.5 1112.59 207.697 1112.05 205.165 1110.96C202.633 1109.88 200.644 1108.31 199.197 1106.26C197.75 1104.21 197.027 1101.71 197.027 1098.76C197.027 1095.74 197.75 1093.27 199.197 1091.34C200.644 1089.35 202.633 1087.87 205.165 1086.91C207.697 1085.89 210.53 1085.37 213.665 1085.37H228.585V1082.12C228.585 1078.98 227.651 1076.51 225.782 1074.7C223.973 1072.89 221.261 1071.99 217.644 1071.99C214.087 1071.99 211.314 1072.86 209.325 1074.61C207.335 1076.3 205.979 1078.59 205.255 1081.48L198.564 1079.31C199.287 1076.84 200.433 1074.61 202 1072.62C203.568 1070.57 205.647 1068.95 208.24 1067.74C210.892 1066.47 214.057 1065.84 217.734 1065.84C223.401 1065.84 227.801 1067.32 230.936 1070.27C234.071 1073.17 235.638 1077.26 235.638 1082.57V1102.55C235.638 1104.36 236.482 1105.27 238.17 1105.27H242.239V1111.32H236C234.011 1111.32 232.413 1110.78 231.207 1109.7C230.002 1108.55 229.399 1107.04 229.399 1105.18V1104.72H228.314C227.651 1105.87 226.746 1107.07 225.601 1108.34C224.516 1109.55 223.009 1110.54 221.08 1111.32C219.151 1112.17 216.649 1112.59 213.575 1112.59ZM214.388 1106.44C218.608 1106.44 222.014 1105.21 224.606 1102.73C227.259 1100.2 228.585 1096.68 228.585 1092.15V1091.16H213.936C211.103 1091.16 208.752 1091.79 206.883 1093.06C205.075 1094.26 204.17 1096.1 204.17 1098.57C204.17 1101.05 205.105 1102.98 206.974 1104.36C208.903 1105.75 211.374 1106.44 214.388 1106.44ZM252.023 1111.32V1067.11H258.985V1074.61H260.251C261.216 1072.5 262.844 1070.6 265.134 1068.92C267.485 1067.17 270.921 1066.29 275.443 1066.29C278.758 1066.29 281.712 1066.99 284.304 1068.37C286.957 1069.76 289.067 1071.81 290.634 1074.52C292.201 1077.23 292.985 1080.58 292.985 1084.56V1111.32H285.842V1085.1C285.842 1080.7 284.726 1077.51 282.496 1075.52C280.326 1073.53 277.372 1072.53 273.634 1072.53C269.354 1072.53 265.858 1073.92 263.145 1076.69C260.492 1079.47 259.166 1083.59 259.166 1089.08V1111.32H252.023ZM330.431 1111.32V1048.03H369.404V1054.9H338.027V1076.06H366.873V1082.93H338.027V1104.45H369.857V1111.32H330.431ZM378.038 1111.32L395.761 1088.9L378.58 1067.11H387.171L400.373 1084.2H401.639L414.75 1067.11H423.431L406.16 1088.9L423.883 1111.32H415.202L401.639 1093.69H400.373L386.809 1111.32H378.038ZM435.256 1129.41V1067.11H442.219V1074.43H443.485C444.63 1072.2 446.469 1070.21 449.001 1068.46C451.593 1066.72 455.18 1065.84 459.761 1065.84C463.559 1065.84 467.025 1066.78 470.16 1068.64C473.355 1070.45 475.887 1073.04 477.756 1076.42C479.685 1079.8 480.649 1083.87 480.649 1088.63V1089.8C480.649 1094.51 479.715 1098.57 477.846 1102.01C475.977 1105.45 473.446 1108.07 470.251 1109.88C467.116 1111.69 463.619 1112.59 459.761 1112.59C456.687 1112.59 454.065 1112.17 451.894 1111.32C449.784 1110.54 448.066 1109.52 446.74 1108.25C445.414 1106.98 444.389 1105.69 443.666 1104.36H442.4V1129.41H435.256ZM457.862 1106.26C462.444 1106.26 466.151 1104.81 468.985 1101.92C471.878 1098.97 473.325 1094.87 473.325 1089.62V1088.81C473.325 1083.56 471.878 1079.5 468.985 1076.6C466.151 1073.65 462.444 1072.17 457.862 1072.17C453.341 1072.17 449.604 1073.65 446.65 1076.6C443.756 1079.5 442.309 1083.56 442.309 1088.81V1089.62C442.309 1094.87 443.756 1098.97 446.65 1101.92C449.604 1104.81 453.341 1106.26 457.862 1106.26ZM513.705 1112.59C509.244 1112.59 505.325 1111.66 501.949 1109.79C498.574 1107.86 495.951 1105.18 494.082 1101.74C492.214 1098.3 491.279 1094.32 491.279 1089.8V1088.72C491.279 1084.14 492.214 1080.13 494.082 1076.69C495.951 1073.26 498.543 1070.6 501.859 1068.73C505.175 1066.81 508.972 1065.84 513.252 1065.84C517.412 1065.84 521.089 1066.75 524.284 1068.55C527.479 1070.3 529.981 1072.83 531.79 1076.15C533.598 1079.47 534.502 1083.35 534.502 1087.81V1091.07H498.423C498.604 1095.83 500.141 1099.57 503.034 1102.28C505.928 1104.93 509.545 1106.26 513.885 1106.26C517.683 1106.26 520.607 1105.39 522.657 1103.64C524.706 1101.89 526.274 1099.81 527.359 1097.4L533.508 1100.38C532.603 1102.25 531.337 1104.12 529.71 1105.99C528.142 1107.86 526.063 1109.43 523.47 1110.69C520.939 1111.96 517.683 1112.59 513.705 1112.59ZM498.513 1085.19H527.268C527.027 1081.09 525.61 1077.9 523.018 1075.61C520.486 1073.32 517.231 1072.17 513.252 1072.17C509.213 1072.17 505.898 1073.32 503.306 1075.61C500.714 1077.9 499.116 1081.09 498.513 1085.19ZM546.962 1111.32V1067.11H553.925V1072.53H555.191C555.975 1070.6 557.18 1069.19 558.808 1068.28C560.436 1067.38 562.576 1066.93 565.228 1066.93H570.473V1073.44H564.776C561.581 1073.44 558.989 1074.34 557 1076.15C555.071 1077.9 554.106 1080.64 554.106 1084.38V1111.32H546.962ZM581.048 1111.32V1067.11H588.192V1111.32H581.048ZM584.665 1060.23C583.098 1060.23 581.772 1059.72 580.687 1058.7C579.662 1057.67 579.149 1056.38 579.149 1054.81C579.149 1053.18 579.662 1051.86 580.687 1050.83C581.772 1049.81 583.098 1049.29 584.665 1049.29C586.233 1049.29 587.529 1049.81 588.554 1050.83C589.578 1051.86 590.091 1053.18 590.091 1054.81C590.091 1056.38 589.578 1057.67 588.554 1058.7C587.529 1059.72 586.233 1060.23 584.665 1060.23ZM623.468 1112.59C619.007 1112.59 615.089 1111.66 611.713 1109.79C608.337 1107.86 605.715 1105.18 603.846 1101.74C601.977 1098.3 601.043 1094.32 601.043 1089.8V1088.72C601.043 1084.14 601.977 1080.13 603.846 1076.69C605.715 1073.26 608.307 1070.6 611.622 1068.73C614.938 1066.81 618.736 1065.84 623.016 1065.84C627.175 1065.84 630.853 1066.75 634.048 1068.55C637.243 1070.3 639.745 1072.83 641.553 1076.15C643.361 1079.47 644.266 1083.35 644.266 1087.81V1091.07H608.186C608.367 1095.83 609.904 1099.57 612.798 1102.28C615.692 1104.93 619.309 1106.26 623.649 1106.26C627.447 1106.26 630.37 1105.39 632.42 1103.64C634.47 1101.89 636.037 1099.81 637.122 1097.4L643.271 1100.38C642.367 1102.25 641.101 1104.12 639.473 1105.99C637.906 1107.86 635.826 1109.43 633.234 1110.69C630.702 1111.96 627.447 1112.59 623.468 1112.59ZM608.277 1085.19H637.032C636.791 1081.09 635.374 1077.9 632.782 1075.61C630.25 1073.32 626.995 1072.17 623.016 1072.17C618.977 1072.17 615.661 1073.32 613.069 1075.61C610.477 1077.9 608.88 1081.09 608.277 1085.19ZM656.726 1111.32V1067.11H663.689V1074.61H664.955C665.919 1072.5 667.547 1070.6 669.838 1068.92C672.189 1067.17 675.625 1066.29 680.146 1066.29C683.462 1066.29 686.415 1066.99 689.008 1068.37C691.66 1069.76 693.77 1071.81 695.337 1074.52C696.905 1077.23 697.688 1080.58 697.688 1084.56V1111.32H690.545V1085.1C690.545 1080.7 689.43 1077.51 687.199 1075.52C685.029 1073.53 682.075 1072.53 678.338 1072.53C674.057 1072.53 670.561 1073.92 667.848 1076.69C665.196 1079.47 663.87 1083.59 663.87 1089.08V1111.32H656.726ZM732.527 1112.59C728.247 1112.59 724.389 1111.69 720.953 1109.88C717.577 1108.01 714.894 1105.36 712.905 1101.92C710.976 1098.48 710.012 1094.42 710.012 1089.71V1088.72C710.012 1083.96 710.976 1079.89 712.905 1076.51C714.894 1073.08 717.577 1070.45 720.953 1068.64C724.389 1066.78 728.247 1065.84 732.527 1065.84C736.747 1065.84 740.334 1066.62 743.288 1068.19C746.302 1069.76 748.653 1071.84 750.341 1074.43C752.089 1077.02 753.204 1079.8 753.687 1082.75L746.724 1084.2C746.423 1082.03 745.699 1080.04 744.554 1078.23C743.469 1076.42 741.931 1074.97 739.942 1073.89C737.953 1072.8 735.511 1072.26 732.618 1072.26C729.664 1072.26 727.011 1072.92 724.66 1074.25C722.37 1075.58 720.531 1077.48 719.144 1079.95C717.818 1082.42 717.155 1085.37 717.155 1088.81V1089.62C717.155 1093.06 717.818 1096.01 719.144 1098.48C720.531 1100.96 722.37 1102.85 724.66 1104.18C727.011 1105.51 729.664 1106.17 732.618 1106.17C737.018 1106.17 740.364 1105.03 742.655 1102.73C745.006 1100.44 746.453 1097.61 746.995 1094.23L754.048 1095.77C753.385 1098.67 752.18 1101.41 750.431 1104C748.683 1106.59 746.302 1108.67 743.288 1110.24C740.334 1111.81 736.747 1112.59 732.527 1112.59ZM786.48 1112.59C782.019 1112.59 778.1 1111.66 774.725 1109.79C771.349 1107.86 768.726 1105.18 766.858 1101.74C764.989 1098.3 764.054 1094.32 764.054 1089.8V1088.72C764.054 1084.14 764.989 1080.13 766.858 1076.69C768.726 1073.26 771.319 1070.6 774.634 1068.73C777.95 1066.81 781.748 1065.84 786.028 1065.84C790.187 1065.84 793.864 1066.75 797.059 1068.55C800.254 1070.3 802.756 1072.83 804.565 1076.15C806.373 1079.47 807.277 1083.35 807.277 1087.81V1091.07H771.198C771.379 1095.83 772.916 1099.57 775.81 1102.28C778.703 1104.93 782.32 1106.26 786.661 1106.26C790.458 1106.26 793.382 1105.39 795.432 1103.64C797.481 1101.89 799.049 1099.81 800.134 1097.4L806.283 1100.38C805.378 1102.25 804.113 1104.12 802.485 1105.99C800.918 1107.86 798.838 1109.43 796.246 1110.69C793.714 1111.96 790.458 1112.59 786.48 1112.59ZM771.288 1085.19H800.043C799.802 1081.09 798.386 1077.9 795.793 1075.61C793.262 1073.32 790.006 1072.17 786.028 1072.17C781.989 1072.17 778.673 1073.32 776.081 1075.61C773.489 1077.9 771.891 1081.09 771.288 1085.19ZM837.551 1112.59C832.066 1112.59 827.424 1111.32 823.626 1108.79C819.888 1106.26 817.628 1102.25 816.844 1096.77L823.626 1095.23C824.108 1098.12 825.012 1100.41 826.339 1102.1C827.665 1103.73 829.292 1104.9 831.222 1105.63C833.211 1106.29 835.321 1106.62 837.551 1106.62C840.867 1106.62 843.489 1105.96 845.418 1104.63C847.347 1103.31 848.312 1101.53 848.312 1099.3C848.312 1097.01 847.377 1095.41 845.509 1094.51C843.7 1093.54 841.198 1092.76 838.003 1092.15L834.296 1091.52C831.463 1091.04 828.87 1090.29 826.519 1089.26C824.168 1088.24 822.3 1086.85 820.913 1085.1C819.527 1083.35 818.833 1081.15 818.833 1078.5C818.833 1074.52 820.371 1071.42 823.445 1069.19C826.519 1066.96 830.589 1065.84 835.652 1065.84C840.656 1065.84 844.695 1066.99 847.769 1069.28C850.904 1071.51 852.923 1074.67 853.828 1078.77L847.136 1080.49C846.594 1077.29 845.298 1075.06 843.248 1073.8C841.198 1072.47 838.667 1071.81 835.652 1071.81C832.638 1071.81 830.257 1072.38 828.509 1073.53C826.761 1074.61 825.886 1076.24 825.886 1078.41C825.886 1080.52 826.7 1082.09 828.328 1083.11C830.016 1084.08 832.246 1084.8 835.019 1085.28L838.727 1085.92C841.862 1086.46 844.665 1087.21 847.136 1088.18C849.668 1089.08 851.658 1090.41 853.104 1092.15C854.611 1093.9 855.365 1096.19 855.365 1099.03C855.365 1103.37 853.737 1106.71 850.482 1109.06C847.287 1111.42 842.977 1112.59 837.551 1112.59ZM890.647 1111.32V1067.11H897.79V1111.32H890.647ZM894.264 1060.23C892.696 1060.23 891.37 1059.72 890.285 1058.7C889.26 1057.67 888.748 1056.38 888.748 1054.81C888.748 1053.18 889.26 1051.86 890.285 1050.83C891.37 1049.81 892.696 1049.29 894.264 1049.29C895.831 1049.29 897.127 1049.81 898.152 1050.83C899.177 1051.86 899.689 1053.18 899.689 1054.81C899.689 1056.38 899.177 1057.67 898.152 1058.7C897.127 1059.72 895.831 1060.23 894.264 1060.23ZM912.811 1111.32V1067.11H919.774V1074.61H921.04C922.005 1072.5 923.632 1070.6 925.923 1068.92C928.274 1067.17 931.71 1066.29 936.231 1066.29C939.547 1066.29 942.501 1066.99 945.093 1068.37C947.746 1069.76 949.855 1071.81 951.423 1074.52C952.99 1077.23 953.774 1080.58 953.774 1084.56V1111.32H946.63V1085.1C946.63 1080.7 945.515 1077.51 943.285 1075.52C941.114 1073.53 938.161 1072.53 934.423 1072.53C930.143 1072.53 926.646 1073.92 923.934 1076.69C921.281 1079.47 919.955 1083.59 919.955 1089.08V1111.32H912.811ZM986.88 1111.32L1007.32 1079.4L987.151 1048.03H996.103L1012.2 1074.16H1013.37L1029.56 1048.03H1038.42L1018.35 1079.4L1038.78 1111.32H1029.92L1013.37 1084.65H1012.2L995.741 1111.32H986.88ZM1048.88 1111.32V1048.03H1074.47C1078.39 1048.03 1081.83 1048.72 1084.78 1050.11C1087.8 1051.43 1090.15 1053.36 1091.84 1055.89C1093.52 1058.37 1094.37 1061.35 1094.37 1064.85V1065.84C1094.37 1070 1093.37 1073.29 1091.38 1075.7C1089.39 1078.11 1087.04 1079.74 1084.33 1080.58V1081.85C1086.5 1081.91 1088.28 1082.63 1089.67 1084.02C1091.11 1085.34 1091.84 1087.36 1091.84 1090.07V1111.32H1084.33V1090.98C1084.33 1089.17 1083.82 1087.78 1082.79 1086.82C1081.83 1085.86 1080.35 1085.37 1078.36 1085.37H1056.48V1111.32H1048.88ZM1056.48 1078.5H1073.75C1077.91 1078.5 1081.1 1077.51 1083.34 1075.52C1085.63 1073.47 1086.77 1070.63 1086.77 1067.02V1066.38C1086.77 1062.77 1085.66 1059.96 1083.43 1057.97C1081.2 1055.92 1077.97 1054.9 1073.75 1054.9H1056.48V1078.5ZM1129.15 1111.32V1048.03H1136.75V1104.45H1168.76V1111.32H1129.15ZM1192.35 1112.59C1189.28 1112.59 1186.47 1112.05 1183.94 1110.96C1181.41 1109.88 1179.42 1108.31 1177.97 1106.26C1176.53 1104.21 1175.8 1101.71 1175.8 1098.76C1175.8 1095.74 1176.53 1093.27 1177.97 1091.34C1179.42 1089.35 1181.41 1087.87 1183.94 1086.91C1186.47 1085.89 1189.31 1085.37 1192.44 1085.37H1207.36V1082.12C1207.36 1078.98 1206.43 1076.51 1204.56 1074.7C1202.75 1072.89 1200.04 1071.99 1196.42 1071.99C1192.86 1071.99 1190.09 1072.86 1188.1 1074.61C1186.11 1076.3 1184.76 1078.59 1184.03 1081.48L1177.34 1079.31C1178.06 1076.84 1179.21 1074.61 1180.78 1072.62C1182.34 1070.57 1184.42 1068.95 1187.02 1067.74C1189.67 1066.47 1192.83 1065.84 1196.51 1065.84C1202.18 1065.84 1206.58 1067.32 1209.71 1070.27C1212.85 1073.17 1214.41 1077.26 1214.41 1082.57V1102.55C1214.41 1104.36 1215.26 1105.27 1216.95 1105.27H1221.02V1111.32H1214.78C1212.79 1111.32 1211.19 1110.78 1209.98 1109.7C1208.78 1108.55 1208.18 1107.04 1208.18 1105.18V1104.72H1207.09C1206.43 1105.87 1205.52 1107.07 1204.38 1108.34C1203.29 1109.55 1201.79 1110.54 1199.86 1111.32C1197.93 1112.17 1195.43 1112.59 1192.35 1112.59ZM1193.16 1106.44C1197.38 1106.44 1200.79 1105.21 1203.38 1102.73C1206.04 1100.2 1207.36 1096.68 1207.36 1092.15V1091.16H1192.71C1189.88 1091.16 1187.53 1091.79 1185.66 1093.06C1183.85 1094.26 1182.95 1096.1 1182.95 1098.57C1182.95 1101.05 1183.88 1102.98 1185.75 1104.36C1187.68 1105.75 1190.15 1106.44 1193.16 1106.44ZM1255.3 1112.59C1250.72 1112.59 1247.14 1111.72 1244.54 1109.97C1242.01 1108.22 1240.17 1106.23 1239.03 1104H1237.76V1111.32H1230.8V1048.03H1237.94V1074.07H1239.21C1239.93 1072.68 1240.96 1071.39 1242.28 1070.18C1243.61 1068.92 1245.33 1067.89 1247.44 1067.11C1249.61 1066.26 1252.23 1065.84 1255.3 1065.84C1259.16 1065.84 1262.66 1066.78 1265.79 1068.64C1268.99 1070.45 1271.52 1073.08 1273.39 1076.51C1275.26 1079.89 1276.19 1083.93 1276.19 1088.63V1089.8C1276.19 1094.51 1275.23 1098.57 1273.3 1102.01C1271.43 1105.45 1268.9 1108.07 1265.7 1109.88C1262.57 1111.69 1259.1 1112.59 1255.3 1112.59ZM1253.41 1106.26C1257.99 1106.26 1261.69 1104.81 1264.53 1101.92C1267.42 1098.97 1268.87 1094.87 1268.87 1089.62V1088.81C1268.87 1083.56 1267.42 1079.5 1264.53 1076.6C1261.69 1073.65 1257.99 1072.17 1253.41 1072.17C1248.88 1072.17 1245.15 1073.65 1242.19 1076.6C1239.3 1079.5 1237.85 1083.56 1237.85 1088.81V1089.62C1237.85 1094.87 1239.3 1098.97 1242.19 1101.92C1245.15 1104.81 1248.88 1106.26 1253.41 1106.26Z" fill="white"/>
</g>
<defs>
<linearGradient id="paint0_linear_1_318" x1="808.125" y1="74.4351" x2="485.574" y2="554.127" gradientUnits="userSpaceOnUse">
<stop stop-color="white" stop-opacity="0.4"/>
<stop offset="1" stop-color="white" stop-opacity="0.9"/>
</linearGradient>
<clipPath id="clip0_1_318">
<rect width="1288" height="1139.32" fill="white"/>
</clipPath>
<clipPath id="clip1_1_318">
<rect width="569.245" height="632.763" fill="white" transform="translate(359.377)"/>
</clipPath>
</defs>
</svg>
