<svg width="1920" height="623" viewBox="0 0 1920 623" fill="none" xmlns="http://www.w3.org/2000/svg">
<g clip-path="url(#clip0_1_294)">
<path d="M559.215 194.566V427.66C559.215 455.333 544.445 480.913 520.481 494.75L398.773 565.016C398.751 564.517 398.74 564.029 398.729 563.53C391.735 557.859 376.858 544.218 368.367 521.24C358.706 495.118 363.011 472.401 365.114 463.769C370.265 463.195 382.497 461.134 394.392 451.841C405.995 442.776 410.972 431.748 412.826 426.901C417.89 403.403 422.943 379.916 428.007 356.418C428.94 351.039 429.634 344.002 429.091 335.815C428.603 328.496 427.248 322.25 425.838 317.381C435.099 313.477 445.379 308.522 456.2 302.2C466.101 296.42 474.765 290.5 482.225 284.85C485.836 281.977 494.066 274.657 498.49 262.079C502.329 251.159 501.407 241.693 500.659 237.138C494.511 214.367 488.373 191.595 482.225 168.824C479.351 160.68 473.279 146.963 460.538 134.124C451.961 125.482 443.188 120.082 436.682 116.775C413.769 107.113 386.552 97.7116 355.355 90.75C340.109 87.3451 325.589 84.8945 311.981 83.1595C297.656 81.1318 278.713 79.8305 256.678 82.0751C235.045 84.2764 217.023 89.2319 203.545 94.0031C186.434 100.021 129.537 122.446 95.1089 182.921C79.1472 210.962 73.2808 237.941 71.1121 257.264C89.8389 238.722 111.841 218.954 137.399 199.186C167.273 176.067 196.041 157.568 221.979 142.799C221.784 155.042 222.673 170.234 226.316 187.258C228.691 198.373 231.792 208.175 234.991 216.536C206.614 227.542 175.525 241.367 142.821 258.826C116.547 272.846 92.886 287.279 71.8061 301.354C72.9772 310.007 74.8639 319.409 77.7592 329.309C84.0702 350.888 93.1029 367.641 100.531 379.189C110.821 392.635 119.626 402.937 125.471 409.551C145.727 432.475 160.051 444.782 161.255 464.854C161.396 467.218 161.32 469.137 161.255 470.276C159.617 478.072 155.443 492.689 143.905 507.144C130.784 523.593 115.115 531.054 107.427 534.101L39.2753 494.75C15.311 480.913 0.541992 455.333 0.541992 427.66V194.566C0.541992 166.883 15.311 141.314 39.2753 127.477L241.14 10.9304C265.115 -2.91689 294.642 -2.91689 318.617 10.9304L520.481 127.477C544.445 141.314 559.215 166.883 559.215 194.566Z" fill="url(#paint0_linear_1_294)"/>
<path d="M398.729 397.623C397.645 401.961 393.307 426.901 388.97 431.239C384.633 435.576 378.17 437.268 369.452 439.913C356.775 443.763 339.849 445.682 290.293 433.407C277.921 430.338 261.178 425.817 241.497 419.311C249.988 430.967 260.69 444.001 274.028 457.263C285.338 468.508 296.42 477.823 306.559 485.456C313.141 489.87 323.594 498.068 332.583 511.481C341.464 524.732 345.086 537.365 346.68 545.096C347.114 550.279 348.599 559.377 354.27 568.952C358.196 575.567 362.772 580.154 366.198 583.049C354.975 581.715 341.659 579.167 327.162 574.374C302.46 566.209 283.625 554.606 270.775 545.096C262.208 538.644 250.671 531.368 236.075 525.578C206.939 514.018 180.676 514.376 165.592 515.818C172.987 504.227 184.135 483.407 188.364 455.094C193.536 420.46 185.642 392.733 180.773 379.189C177.216 379.688 154.586 382.475 135.23 366.177C114.573 348.784 114.573 323.909 114.627 320.634C114.486 318.216 114.193 308.554 121.133 300.031C130.372 288.678 144.501 289.112 146.074 289.188C150.042 289.665 155.421 290.792 161.255 293.525C171.643 298.394 177.824 305.713 180.773 309.79C184.341 310.007 194.729 310.148 204.629 303.284C219.702 292.853 220.797 275.123 220.894 272.922C229.103 281.174 244.219 293.85 266.437 300.031C318.281 314.453 361.959 280.458 367.283 276.175C369.039 274.668 382.182 263.64 393.307 267.5C405.658 271.794 414.279 294.013 404.151 319.55C405.235 322.803 408.163 328.539 409.573 335.815C411.742 347.743 408.521 364.594 398.729 397.623Z" stroke="black" stroke-width="1.08436" stroke-miterlimit="10"/>
<path d="M409.573 335.815C411.742 347.743 408.521 364.594 398.729 397.623C397.645 401.961 393.307 426.901 388.97 431.239C384.633 435.576 378.17 437.268 369.452 439.913C356.775 443.763 339.849 445.682 290.293 433.407C277.921 430.338 261.178 425.817 241.497 419.311C249.988 430.967 260.69 444.001 274.028 457.263C285.338 468.508 296.42 477.823 306.559 485.456C313.141 489.87 323.594 498.068 332.583 511.481C341.464 524.732 345.086 537.365 346.68 545.096C347.114 550.279 348.599 559.377 354.27 568.952C358.196 575.567 362.772 580.154 366.198 583.049C354.975 581.715 341.659 579.167 327.162 574.374C302.46 566.209 283.625 554.606 270.775 545.096C262.208 538.644 250.671 531.368 236.075 525.578C206.939 514.018 180.676 514.376 165.592 515.818C172.987 504.227 184.135 483.407 188.364 455.094C193.536 420.46 185.642 392.733 180.773 379.189C177.216 379.688 154.586 382.475 135.23 366.177C114.573 348.784 114.573 323.909 114.627 320.634C114.486 318.216 114.193 308.554 121.133 300.031C130.372 288.678 144.501 289.112 146.074 289.188C150.042 289.665 155.421 290.792 161.255 293.525C171.643 298.394 177.824 305.713 180.773 309.79C184.341 310.007 194.729 310.148 204.629 303.284C219.702 292.853 220.797 275.123 220.894 272.922C229.103 281.174 244.219 293.85 266.437 300.031C318.281 314.453 361.959 280.458 367.283 276.175C369.039 274.668 382.182 263.64 393.307 267.5C405.658 271.794 414.279 294.013 404.151 319.55C405.235 322.803 408.163 328.539 409.573 335.815Z" stroke="black" stroke-width="1.08436" stroke-miterlimit="10"/>
<path d="M478.972 246.898C473.919 253.892 460.3 255.377 446.442 247.982C436.303 243.482 424.331 239.188 410.658 236.054C371.849 227.173 338.32 232.064 317.403 237.139C313.857 237.583 293.254 239.806 276.197 225.211C265.148 215.755 261.266 204.109 259.932 199.186C257.882 193.255 255.941 186.347 254.51 178.583C252.211 166.081 251.908 154.977 252.341 146.052C252.471 142.723 253.437 126.924 266.438 114.606C281.966 99.9021 301.81 102.32 304.391 102.678C318.184 103.426 333.484 105.053 349.934 108.1C378.593 113.413 403.002 121.589 422.586 129.787C430.024 132.52 441.757 138.039 451.863 149.305C455.702 153.589 459.139 158.512 462.707 165.571C475.351 190.576 479.677 222.586 481.141 236.054C481.9 242.278 479.883 245.629 478.972 246.898Z" stroke="black" stroke-width="1.08436" stroke-miterlimit="10"/>
<path d="M478.972 246.898C473.919 253.892 460.3 255.377 446.442 247.982C436.303 243.482 424.331 239.188 410.658 236.054C371.849 227.173 338.32 232.064 317.403 237.139C313.857 237.583 293.254 239.806 276.197 225.211C265.148 215.755 261.266 204.109 259.932 199.186C257.882 193.255 255.941 186.347 254.51 178.583C252.211 166.081 251.908 154.977 252.341 146.052C252.471 142.723 253.437 126.924 266.438 114.606C281.966 99.9021 301.81 102.32 304.391 102.678C318.184 103.426 333.484 105.053 349.934 108.1C378.593 113.413 403.002 121.589 422.586 129.787C430.024 132.52 441.757 138.039 451.863 149.305C455.702 153.589 459.139 158.512 462.707 165.571C475.351 190.576 479.677 222.586 481.141 236.054C481.9 242.278 479.883 245.629 478.972 246.898Z" stroke="black" stroke-width="1.08436" stroke-miterlimit="10"/>
<path d="M234.992 216.536C206.614 227.542 175.525 241.368 142.821 258.826C116.547 272.846 92.8864 287.279 71.8064 301.354C71.5679 299.511 71.3401 297.602 71.145 295.64C70.5703 289.99 70.2016 283.842 70.169 277.26C70.1365 270.19 70.4943 263.629 71.0691 257.687C71.0799 257.546 71.1016 257.405 71.1124 257.264C89.8393 238.722 111.841 218.954 137.399 199.186C167.273 176.067 196.041 157.568 221.979 142.799C221.784 155.042 222.673 170.234 226.317 187.258C228.691 198.373 231.793 208.175 234.992 216.536Z" fill="#FEFFFF"/>
<path d="M500.659 237.138C494.511 214.367 488.374 191.595 482.225 168.824C479.352 160.68 473.279 146.963 460.538 134.124C451.961 125.482 443.188 120.082 436.682 116.775C413.77 107.113 386.552 97.7115 355.355 90.7499C340.109 87.345 325.59 84.8944 311.981 83.1594C297.657 81.1317 278.713 79.8304 256.679 82.075C235.046 84.2763 217.024 89.2318 203.545 94.003C186.434 100.021 129.538 122.446 95.1092 182.92C79.1474 210.962 73.281 237.941 71.1123 257.264C89.8392 238.722 111.841 218.954 137.399 199.186C167.273 176.067 196.041 157.568 221.979 142.799C221.784 155.042 222.673 170.233 226.317 187.258C228.691 198.373 231.793 208.175 234.991 216.536C206.614 227.542 175.525 241.367 142.821 258.826C116.547 272.846 92.8862 287.279 71.8063 301.354C72.9774 310.007 74.8642 319.409 77.7594 329.309C84.0704 350.888 93.1031 367.641 100.531 379.189C110.822 392.635 119.627 402.937 125.471 409.551C145.727 432.475 160.051 444.782 161.255 464.854C161.396 467.218 161.32 469.137 161.255 470.276C159.618 478.072 155.443 492.689 143.905 507.144C130.785 523.593 115.116 531.054 107.427 534.101L231.652 605.82L241.14 611.296C265.115 625.133 294.642 625.133 318.617 611.296L328.105 605.82L398.773 565.016C398.751 564.517 398.74 564.029 398.73 563.53C391.736 557.859 376.858 544.218 368.368 521.24C358.706 495.118 363.011 472.401 365.115 463.769C370.265 463.195 382.497 461.134 394.392 451.841C405.995 442.776 410.972 431.748 412.826 426.901C417.89 403.403 422.943 379.916 428.007 356.418C428.94 351.039 429.634 344.002 429.092 335.815C428.604 328.496 427.248 322.25 425.839 317.381C435.099 313.477 445.379 308.522 456.201 302.2C466.101 296.42 474.765 290.5 482.225 284.85C485.836 281.977 494.066 274.657 498.491 262.079C502.329 251.159 501.408 241.693 500.659 237.138ZM398.73 397.623C397.645 401.961 393.308 426.901 388.97 431.239C384.633 435.576 378.17 437.268 369.452 439.913C356.776 443.763 339.849 445.682 290.294 433.407C277.921 430.339 261.179 425.817 241.498 419.311C249.988 430.967 260.691 444.001 274.028 457.263C285.338 468.508 296.42 477.823 306.559 485.457C313.141 489.87 323.594 498.068 332.584 511.481C341.465 524.732 345.086 537.365 346.68 545.096C347.114 550.28 348.6 559.377 354.271 568.952C358.196 575.567 362.772 580.154 366.199 583.049C354.976 581.715 341.66 579.167 327.162 574.374C302.46 566.209 283.625 554.606 270.775 545.096C262.209 538.644 250.671 531.368 236.076 525.578C206.939 514.019 180.676 514.376 165.592 515.819C172.988 504.227 184.135 483.407 188.364 455.094C193.536 420.46 185.642 392.733 180.774 379.189C177.217 379.688 154.586 382.475 135.23 366.177C114.573 348.784 114.573 323.909 114.628 320.634C114.487 318.216 114.194 308.554 121.134 300.031C130.373 288.678 144.502 289.112 146.074 289.188C150.043 289.665 155.421 290.792 161.255 293.525C171.643 298.394 177.824 305.713 180.774 309.79C184.341 310.007 194.729 310.148 204.629 303.284C219.702 292.853 220.797 275.123 220.895 272.922C229.103 281.174 244.219 293.85 266.438 300.031C318.281 314.453 361.959 280.458 367.283 276.175C369.04 274.668 382.182 263.64 393.308 267.5C405.659 271.794 414.279 294.013 404.151 319.55C405.236 322.803 408.164 328.539 409.573 335.815C411.742 347.743 408.521 364.594 398.73 397.623ZM478.972 246.898C473.919 253.892 460.3 255.377 446.441 247.982C436.303 243.482 424.331 239.188 410.658 236.054C371.848 227.173 338.32 232.064 317.403 237.138C313.857 237.583 293.254 239.806 276.197 225.21C265.147 215.755 261.265 204.109 259.932 199.186C257.882 193.254 255.941 186.347 254.51 178.583C252.211 166.08 251.907 154.976 252.341 146.052C252.471 142.723 253.436 126.924 266.438 114.606C281.966 99.9019 301.81 102.32 304.39 102.678C318.183 103.426 333.484 105.053 349.934 108.1C378.593 113.413 403.002 121.589 422.586 129.787C430.024 132.519 441.757 138.039 451.863 149.305C455.702 153.589 459.139 158.511 462.707 165.571C475.35 190.576 479.677 222.586 481.141 236.054C481.9 242.278 479.883 245.629 478.972 246.898Z" fill="#0E0F27"/>
<path d="M366.198 583.049C354.975 581.715 341.659 579.167 327.162 574.374C302.46 566.209 283.625 554.606 270.775 545.096C262.208 538.644 250.671 531.368 236.075 525.578C206.939 514.018 180.676 514.376 165.592 515.818C172.987 504.227 184.135 483.407 188.364 455.094C193.536 420.46 185.642 392.733 180.773 379.189C177.216 379.688 154.586 382.475 135.23 366.177C114.573 348.784 114.573 323.909 114.627 320.634C114.486 318.216 114.193 308.554 121.133 300.031C130.372 288.678 144.501 289.112 146.074 289.188C150.042 289.665 155.421 290.792 161.255 293.525C171.643 298.394 177.824 305.713 180.773 309.79C184.341 310.007 194.729 310.148 204.629 303.284C219.702 292.853 220.797 275.123 220.894 272.922C229.103 281.174 244.219 293.85 266.437 300.031C318.281 314.453 361.959 280.458 367.283 276.175C369.039 274.668 382.182 263.64 393.307 267.5C405.658 271.794 414.279 294.013 404.151 319.55C405.235 322.803 408.163 328.539 409.573 335.815C411.742 347.743 408.521 364.594 398.729 397.623C397.645 401.961 393.307 426.901 388.97 431.238C384.633 435.576 378.17 437.268 369.452 439.913C356.775 443.763 339.849 445.682 290.293 433.407C277.921 430.338 261.178 425.817 241.497 419.311C249.988 430.967 260.69 444.001 274.028 457.263C285.338 468.508 296.42 477.823 306.559 485.456C313.141 489.87 323.594 498.068 332.583 511.481C341.464 524.732 345.086 537.365 346.68 545.096C347.114 550.279 348.599 559.377 354.27 568.952C358.196 575.567 362.772 580.154 366.198 583.049Z" fill="#FEFFFF"/>
<path d="M259.932 199.186C257.882 193.255 255.941 186.347 254.51 178.583C252.211 166.081 251.908 154.977 252.341 146.052C252.471 142.723 253.437 126.924 266.438 114.606C281.966 99.9021 301.81 102.32 304.391 102.678C318.184 103.426 333.484 105.053 349.934 108.1C378.593 113.413 403.002 121.589 422.586 129.787C430.024 132.52 441.757 138.039 451.863 149.305C455.702 153.589 459.139 158.512 462.707 165.571C475.351 190.576 479.677 222.586 481.141 236.054C481.9 242.278 479.883 245.629 478.972 246.898C473.919 253.892 460.3 255.377 446.442 247.982C436.303 243.482 424.331 239.188 410.658 236.054C371.849 227.173 338.32 232.064 317.403 237.139C313.857 237.583 293.254 239.806 276.197 225.211C265.148 215.755 261.266 204.109 259.932 199.186Z" fill="#FEFFFF"/>
<path d="M187.594 158.316C187.594 190.305 201.51 221.932 207.112 234.221L250.487 223.378L229.342 145.304L223.92 140.424L187.594 158.316Z" fill="#0E0F27"/>
<path d="M76.9894 281.933L73.7363 300.368L211.45 232.595L207.655 215.788L76.9894 281.933Z" fill="#0E0F27"/>
<path d="M70.4834 264.584L192.474 162.654V155.605C153.979 183.618 76.2305 240.294 73.1943 242.896C71.0256 254.282 71.0256 259.162 70.4834 264.584Z" fill="#0E0F27"/>
<path d="M150.547 214.475C148.861 211.858 149.49 208.383 151.986 206.522L167.322 195.091C170.679 192.589 175.452 193.453 177.719 196.972C179.987 200.492 178.799 205.196 175.133 207.217L158.383 216.453C155.657 217.956 152.233 217.092 150.547 214.475Z" fill="#0E0F27"/>
</g>
<path d="M1757.2 388.694C1752.41 388.694 1748.52 384.81 1748.52 380.019V168.319C1748.52 163.528 1752.41 159.645 1757.2 159.645H1786.31C1791.1 159.645 1794.99 163.528 1794.99 168.319V196.78C1794.99 201.571 1798.87 205.454 1803.66 205.454H1878.76C1881.06 205.454 1883.27 206.368 1884.89 207.995L1917.12 240.216C1918.74 241.843 1919.66 244.049 1919.66 246.35V347.798C1919.66 350.099 1918.74 352.306 1917.12 353.932L1884.89 386.153C1883.27 387.78 1881.06 388.694 1878.76 388.694H1757.2ZM1794.99 340.753C1794.99 345.544 1798.87 349.428 1803.66 349.428H1864.52C1869.31 349.428 1873.19 345.544 1873.19 340.753V253.395C1873.19 248.604 1869.31 244.72 1864.52 244.72H1803.66C1798.87 244.72 1794.99 248.604 1794.99 253.395V340.753Z" fill="white"/>
<path d="M1551.59 355.241C1549.97 353.615 1549.05 351.408 1549.05 349.107V292.426C1549.05 287.727 1552.79 283.883 1557.49 283.754L1659.72 280.945C1664.42 280.816 1668.16 276.972 1668.16 272.274V253.395C1668.16 248.604 1664.27 244.72 1659.48 244.72H1564.27C1559.48 244.72 1555.6 240.836 1555.6 236.045V214.129C1555.6 209.338 1559.48 205.455 1564.27 205.455H1675.04C1677.34 205.455 1679.54 206.369 1681.17 207.995L1712.08 238.907C1713.71 240.534 1714.62 242.741 1714.62 245.041V380.019C1714.62 384.81 1710.74 388.694 1705.95 388.694H1588.64C1586.34 388.694 1584.13 387.78 1582.5 386.153L1551.59 355.241ZM1603.41 312.069C1598.94 312.472 1595.52 316.22 1595.52 320.709V342.063C1595.52 346.854 1599.4 350.737 1604.19 350.737H1659.48C1664.27 350.737 1668.16 346.854 1668.16 342.063V315.728C1668.16 310.63 1663.78 306.631 1658.7 307.088L1603.41 312.069Z" fill="white"/>
<path d="M1369.27 388.694C1364.48 388.694 1360.6 384.81 1360.6 380.019V168.319C1360.6 163.528 1364.48 159.645 1369.27 159.645H1398.39C1403.18 159.645 1407.06 163.528 1407.06 168.319V340.753C1407.06 345.544 1410.95 349.428 1415.74 349.428H1475.61C1480.4 349.428 1484.28 345.544 1484.28 340.753V305.749C1484.28 300.958 1488.17 297.074 1492.96 297.074H1517.49C1522.28 297.074 1526.17 300.958 1526.17 305.749V380.019C1526.17 384.81 1522.28 388.694 1517.49 388.694H1369.27Z" fill="white"/>
<path d="M1059.83 388.694C1053.56 388.694 1049.36 382.24 1051.9 376.504L1098.59 271.173C1099.59 268.915 1099.58 266.339 1098.56 264.088L1056.93 171.889C1054.34 166.148 1058.54 159.645 1064.84 159.645H1095.67C1099.18 159.645 1102.34 161.762 1103.69 165.008L1136.56 244.592C1137.9 247.838 1141.06 249.955 1144.57 249.955H1156.53C1160.04 249.955 1163.21 247.838 1164.55 244.592L1197.42 165.008C1198.76 161.762 1201.92 159.645 1205.44 159.645H1236.26C1242.56 159.645 1246.76 166.148 1244.17 171.889L1202.54 264.088C1201.52 266.339 1201.51 268.915 1202.52 271.173L1249.2 376.504C1251.74 382.24 1247.55 388.694 1241.27 388.694H1210.06C1206.53 388.694 1203.35 386.552 1202.02 383.278L1167.14 297.254C1165.82 293.981 1162.64 291.839 1159.11 291.839H1142C1138.47 291.839 1135.29 293.981 1133.96 297.254L1099.08 383.278C1097.76 386.552 1094.58 388.694 1091.05 388.694H1059.83Z" fill="white"/>
<path d="M878.451 388.694C873.66 388.694 869.776 384.81 869.776 380.019V168.319C869.776 163.528 873.66 159.645 878.451 159.645H1020.78C1025.57 159.645 1029.46 163.528 1029.46 168.319V190.235C1029.46 195.026 1025.57 198.91 1020.78 198.91H924.916C920.125 198.91 916.241 202.794 916.241 207.585V243.898C916.241 248.689 920.125 252.573 924.916 252.573H1004.42C1009.21 252.573 1013.1 256.457 1013.1 261.248V281.855C1013.1 286.646 1009.21 290.53 1004.42 290.53H924.916C920.125 290.53 916.241 294.414 916.241 299.205V340.754C916.241 345.545 920.125 349.428 924.916 349.428H1024.05C1028.84 349.428 1032.73 353.312 1032.73 358.103V380.019C1032.73 384.81 1028.84 388.694 1024.05 388.694H878.451Z" fill="white"/>
<path d="M661.801 388.694C657.01 388.694 653.126 384.811 653.126 380.02V168.32C653.126 163.529 657.01 159.645 661.801 159.645H690.915C695.706 159.645 699.59 163.529 699.59 168.32V241.281C699.59 246.072 703.474 249.956 708.265 249.956H780.572C785.363 249.956 789.247 246.072 789.247 241.281V168.32C789.247 163.529 793.131 159.645 797.922 159.645H827.036C831.827 159.645 835.711 163.529 835.711 168.32V380.02C835.711 384.811 831.827 388.694 827.036 388.694H797.922C793.131 388.694 789.247 384.811 789.247 380.02V300.514C789.247 295.723 785.363 291.839 780.572 291.839H708.265C703.474 291.839 699.59 295.723 699.59 300.514V380.02C699.59 384.811 695.706 388.694 690.915 388.694H661.801Z" fill="white"/>
<path d="M660.239 500.607V438.365H667.708V466.018H696.873V438.365H704.342V500.607H696.873V472.776H667.708V500.607H660.239ZM735.486 501.407C732.344 501.407 729.439 500.725 726.772 499.362C724.164 497.999 722.089 495.983 720.548 493.316C719.066 490.589 718.325 487.299 718.325 483.446V457.126H725.349V482.912C725.349 487.24 726.416 490.381 728.55 492.338C730.743 494.294 733.678 495.272 737.353 495.272C741.502 495.272 744.911 493.908 747.579 491.182C750.246 488.455 751.58 484.394 751.58 479V457.126H758.604V500.607H751.758V493.227H750.513C749.564 495.302 747.934 497.198 745.622 498.918C743.31 500.577 739.932 501.407 735.486 501.407ZM773.303 500.607V457.126H780.149V462.55H781.394C782.224 461.009 783.588 459.586 785.484 458.282C787.381 456.978 790.049 456.326 793.487 456.326C796.866 456.326 799.593 457.067 801.667 458.549C803.801 460.031 805.343 461.839 806.291 463.973H807.536C808.544 461.839 810.055 460.031 812.071 458.549C814.145 457.067 817.02 456.326 820.696 456.326C823.6 456.326 826.149 456.919 828.343 458.104C830.536 459.29 832.255 461.009 833.5 463.262C834.804 465.455 835.456 468.093 835.456 471.175V500.607H828.432V471.798C828.432 468.893 827.572 466.611 825.853 464.951C824.193 463.232 821.852 462.372 818.828 462.372C815.627 462.372 812.99 463.41 810.915 465.485C808.899 467.559 807.892 470.553 807.892 474.465V500.607H800.867V471.798C800.867 468.893 800.008 466.611 798.289 464.951C796.629 463.232 794.287 462.372 791.264 462.372C788.063 462.372 785.425 463.41 783.35 465.485C781.335 467.559 780.327 470.553 780.327 474.465V500.607H773.303ZM863.141 501.852C860.117 501.852 857.361 501.318 854.871 500.251C852.382 499.184 850.425 497.643 849.003 495.628C847.58 493.612 846.869 491.152 846.869 488.247C846.869 485.283 847.58 482.853 849.003 480.956C850.425 479 852.382 477.548 854.871 476.599C857.361 475.591 860.147 475.088 863.23 475.088H877.901V471.887C877.901 468.804 876.982 466.374 875.144 464.595C873.366 462.817 870.699 461.928 867.142 461.928C863.644 461.928 860.918 462.787 858.961 464.506C857.005 466.166 855.672 468.419 854.96 471.264L848.38 469.13C849.092 466.7 850.218 464.506 851.759 462.55C853.3 460.535 855.346 458.934 857.894 457.749C860.503 456.504 863.615 455.881 867.231 455.881C872.803 455.881 877.13 457.334 880.213 460.238C883.295 463.084 884.836 467.115 884.836 472.331V491.982C884.836 493.76 885.666 494.649 887.326 494.649H891.327V500.607H885.192C883.236 500.607 881.665 500.073 880.479 499.006C879.294 497.88 878.701 496.398 878.701 494.561V494.116H877.634C876.982 495.242 876.093 496.428 874.967 497.673C873.9 498.858 872.418 499.836 870.521 500.607C868.624 501.437 866.164 501.852 863.141 501.852ZM863.941 495.805C868.09 495.805 871.44 494.59 873.989 492.16C876.597 489.67 877.901 486.202 877.901 481.756V480.778H863.496C860.71 480.778 858.398 481.401 856.561 482.646C854.782 483.831 853.893 485.639 853.893 488.07C853.893 490.5 854.812 492.397 856.65 493.76C858.547 495.124 860.977 495.805 863.941 495.805ZM900.948 500.607V457.126H907.795V464.506H909.039C909.988 462.432 911.588 460.564 913.841 458.905C916.153 457.186 919.532 456.326 923.977 456.326C927.238 456.326 930.142 457.008 932.691 458.371C935.3 459.735 937.374 461.75 938.916 464.418C940.457 467.085 941.227 470.375 941.227 474.287V500.607H934.203V474.821C934.203 470.494 933.106 467.352 930.913 465.396C928.779 463.439 925.874 462.461 922.199 462.461C917.99 462.461 914.552 463.825 911.885 466.552C909.276 469.278 907.972 473.339 907.972 478.733V500.607H900.948ZM978.05 500.607V438.365H1016.37V445.122H985.519V465.929H1013.88V472.687H985.519V493.849H1016.82V500.607H978.05ZM1024.86 500.607L1042.29 478.555L1025.4 457.126H1033.84L1046.83 473.932H1048.07L1060.96 457.126H1069.5L1052.52 478.555L1069.94 500.607H1061.41L1048.07 483.268H1046.83L1033.49 500.607H1024.86ZM1081.13 518.39V457.126H1087.97V464.329H1089.22C1090.34 462.135 1092.15 460.179 1094.64 458.46C1097.19 456.741 1100.72 455.881 1105.22 455.881C1108.96 455.881 1112.37 456.8 1115.45 458.638C1118.59 460.416 1121.08 462.965 1122.92 466.285C1124.82 469.604 1125.76 473.606 1125.76 478.289V479.445C1125.76 484.068 1124.84 488.07 1123.01 491.448C1121.17 494.827 1118.68 497.406 1115.54 499.184C1112.46 500.963 1109.02 501.852 1105.22 501.852C1102.2 501.852 1099.62 501.437 1097.49 500.607C1095.41 499.836 1093.72 498.829 1092.42 497.584C1091.12 496.339 1090.11 495.064 1089.4 493.76H1088.15V518.39H1081.13ZM1103.36 495.628C1107.86 495.628 1111.51 494.205 1114.29 491.36C1117.14 488.455 1118.56 484.424 1118.56 479.267V478.466C1118.56 473.309 1117.14 469.308 1114.29 466.463C1111.51 463.558 1107.86 462.106 1103.36 462.106C1098.91 462.106 1095.24 463.558 1092.33 466.463C1089.49 469.308 1088.06 473.309 1088.06 478.466V479.267C1088.06 484.424 1089.49 488.455 1092.33 491.36C1095.24 494.205 1098.91 495.628 1103.36 495.628ZM1158.27 501.852C1153.88 501.852 1150.03 500.933 1146.71 499.095C1143.39 497.198 1140.81 494.561 1138.97 491.182C1137.14 487.803 1136.22 483.89 1136.22 479.445V478.378C1136.22 473.872 1137.14 469.93 1138.97 466.552C1140.81 463.173 1143.36 460.564 1146.62 458.727C1149.88 456.83 1153.61 455.881 1157.82 455.881C1161.91 455.881 1165.53 456.771 1168.67 458.549C1171.81 460.268 1174.27 462.758 1176.05 466.018C1177.83 469.278 1178.72 473.102 1178.72 477.488V480.689H1143.24C1143.42 485.372 1144.93 489.048 1147.78 491.715C1150.62 494.323 1154.18 495.628 1158.45 495.628C1162.18 495.628 1165.06 494.768 1167.07 493.049C1169.09 491.33 1170.63 489.285 1171.69 486.914L1177.74 489.848C1176.85 491.686 1175.61 493.523 1174.01 495.361C1172.47 497.198 1170.42 498.74 1167.87 499.985C1165.38 501.229 1162.18 501.852 1158.27 501.852ZM1143.33 474.91H1171.61C1171.37 470.879 1169.98 467.737 1167.43 465.485C1164.94 463.232 1161.74 462.106 1157.82 462.106C1153.85 462.106 1150.59 463.232 1148.04 465.485C1145.49 467.737 1143.92 470.879 1143.33 474.91ZM1190.97 500.607V457.126H1197.82V462.461H1199.06C1199.83 460.564 1201.02 459.171 1202.62 458.282C1204.22 457.393 1206.32 456.948 1208.93 456.948H1214.09V463.351H1208.49C1205.35 463.351 1202.8 464.24 1200.84 466.018C1198.94 467.737 1198 470.434 1198 474.11V500.607H1190.97ZM1224.49 500.607V457.126H1231.51V500.607H1224.49ZM1228.05 450.369C1226.5 450.369 1225.2 449.865 1224.13 448.857C1223.13 447.849 1222.62 446.575 1222.62 445.034C1222.62 443.433 1223.13 442.129 1224.13 441.121C1225.2 440.113 1226.5 439.61 1228.05 439.61C1229.59 439.61 1230.86 440.113 1231.87 441.121C1232.88 442.129 1233.38 443.433 1233.38 445.034C1233.38 446.575 1232.88 447.849 1231.87 448.857C1230.86 449.865 1229.59 450.369 1228.05 450.369ZM1266.2 501.852C1261.82 501.852 1257.96 500.933 1254.64 499.095C1251.32 497.198 1248.74 494.561 1246.91 491.182C1245.07 487.803 1244.15 483.89 1244.15 479.445V478.378C1244.15 473.872 1245.07 469.93 1246.91 466.552C1248.74 463.173 1251.29 460.564 1254.55 458.727C1257.81 456.83 1261.55 455.881 1265.76 455.881C1269.85 455.881 1273.46 456.771 1276.61 458.549C1279.75 460.268 1282.21 462.758 1283.99 466.018C1285.76 469.278 1286.65 473.102 1286.65 477.488V480.689H1251.17C1251.35 485.372 1252.86 489.048 1255.71 491.715C1258.55 494.323 1262.11 495.628 1266.38 495.628C1270.11 495.628 1272.99 494.768 1275 493.049C1277.02 491.33 1278.56 489.285 1279.63 486.914L1285.67 489.848C1284.79 491.686 1283.54 493.523 1281.94 495.361C1280.4 497.198 1278.35 498.74 1275.8 499.985C1273.32 501.229 1270.11 501.852 1266.2 501.852ZM1251.26 474.91H1279.54C1279.3 470.879 1277.91 467.737 1275.36 465.485C1272.87 463.232 1269.67 462.106 1265.76 462.106C1261.79 462.106 1258.53 463.232 1255.98 465.485C1253.43 467.737 1251.86 470.879 1251.26 474.91ZM1298.91 500.607V457.126H1305.75V464.506H1307C1307.95 462.432 1309.55 460.564 1311.8 458.905C1314.11 457.186 1317.49 456.326 1321.94 456.326C1325.2 456.326 1328.1 457.008 1330.65 458.371C1333.26 459.735 1335.33 461.75 1336.87 464.418C1338.41 467.085 1339.19 470.375 1339.19 474.287V500.607H1332.16V474.821C1332.16 470.494 1331.06 467.352 1328.87 465.396C1326.74 463.439 1323.83 462.461 1320.16 462.461C1315.95 462.461 1312.51 463.825 1309.84 466.552C1307.23 469.278 1305.93 473.339 1305.93 478.733V500.607H1298.91ZM1373.44 501.852C1369.23 501.852 1365.44 500.963 1362.06 499.184C1358.74 497.347 1356.1 494.738 1354.15 491.36C1352.25 487.981 1351.3 483.979 1351.3 479.356V478.378C1351.3 473.695 1352.25 469.693 1354.15 466.374C1356.1 462.995 1358.74 460.416 1362.06 458.638C1365.44 456.8 1369.23 455.881 1373.44 455.881C1377.59 455.881 1381.12 456.652 1384.02 458.193C1386.99 459.735 1389.3 461.78 1390.96 464.329C1392.68 466.878 1393.78 469.604 1394.25 472.509L1387.4 473.932C1387.11 471.798 1386.4 469.842 1385.27 468.063C1384.2 466.285 1382.69 464.862 1380.73 463.795C1378.78 462.728 1376.38 462.195 1373.53 462.195C1370.63 462.195 1368.02 462.847 1365.71 464.151C1363.45 465.455 1361.65 467.322 1360.28 469.753C1358.98 472.183 1358.33 475.088 1358.33 478.466V479.267C1358.33 482.646 1358.98 485.55 1360.28 487.981C1361.65 490.411 1363.45 492.278 1365.71 493.582C1368.02 494.887 1370.63 495.539 1373.53 495.539C1377.86 495.539 1381.15 494.412 1383.4 492.16C1385.71 489.907 1387.14 487.121 1387.67 483.802L1394.61 485.313C1393.95 488.158 1392.77 490.856 1391.05 493.405C1389.33 495.954 1386.99 497.999 1384.02 499.54C1381.12 501.081 1377.59 501.852 1373.44 501.852ZM1426.5 501.852C1422.11 501.852 1418.26 500.933 1414.94 499.095C1411.62 497.198 1409.04 494.561 1407.2 491.182C1405.36 487.803 1404.44 483.89 1404.44 479.445V478.378C1404.44 473.872 1405.36 469.93 1407.2 466.552C1409.04 463.173 1411.59 460.564 1414.85 458.727C1418.11 456.83 1421.84 455.881 1426.05 455.881C1430.14 455.881 1433.76 456.771 1436.9 458.549C1440.04 460.268 1442.5 462.758 1444.28 466.018C1446.06 469.278 1446.95 473.102 1446.95 477.488V480.689H1411.47C1411.65 485.372 1413.16 489.048 1416 491.715C1418.85 494.323 1422.41 495.628 1426.67 495.628C1430.41 495.628 1433.28 494.768 1435.3 493.049C1437.31 491.33 1438.86 489.285 1439.92 486.914L1445.97 489.848C1445.08 491.686 1443.84 493.523 1442.23 495.361C1440.69 497.198 1438.65 498.74 1436.1 499.985C1433.61 501.229 1430.41 501.852 1426.5 501.852ZM1411.56 474.91H1439.83C1439.6 470.879 1438.2 467.737 1435.65 465.485C1433.17 463.232 1429.96 462.106 1426.05 462.106C1422.08 462.106 1418.82 463.232 1416.27 465.485C1413.72 467.737 1412.15 470.879 1411.56 474.91ZM1476.72 501.852C1471.32 501.852 1466.76 500.607 1463.02 498.117C1459.35 495.628 1457.13 491.686 1456.35 486.291L1463.02 484.78C1463.5 487.625 1464.39 489.878 1465.69 491.537C1467 493.138 1468.6 494.294 1470.49 495.005C1472.45 495.657 1474.52 495.983 1476.72 495.983C1479.98 495.983 1482.56 495.331 1484.45 494.027C1486.35 492.723 1487.3 490.974 1487.3 488.781C1487.3 486.528 1486.38 484.957 1484.54 484.068C1482.76 483.12 1480.3 482.349 1477.16 481.756L1473.52 481.134C1470.73 480.66 1468.18 479.919 1465.87 478.911C1463.56 477.903 1461.72 476.54 1460.36 474.821C1458.99 473.102 1458.31 470.938 1458.31 468.33C1458.31 464.418 1459.82 461.365 1462.85 459.171C1465.87 456.978 1469.87 455.881 1474.85 455.881C1479.77 455.881 1483.74 457.008 1486.76 459.26C1489.85 461.454 1491.83 464.566 1492.72 468.597L1486.14 470.286C1485.61 467.144 1484.33 464.951 1482.32 463.706C1480.3 462.402 1477.81 461.75 1474.85 461.75C1471.89 461.75 1469.54 462.313 1467.82 463.439C1466.11 464.506 1465.25 466.107 1465.25 468.241C1465.25 470.316 1466.05 471.857 1467.65 472.865C1469.31 473.813 1471.5 474.524 1474.23 474.999L1477.87 475.621C1480.96 476.155 1483.71 476.896 1486.14 477.844C1488.63 478.733 1490.59 480.037 1492.01 481.756C1493.49 483.476 1494.23 485.728 1494.23 488.514C1494.23 492.782 1492.63 496.072 1489.43 498.384C1486.29 500.696 1482.05 501.852 1476.72 501.852ZM1528.93 500.607V457.126H1535.95V500.607H1528.93ZM1532.48 450.369C1530.94 450.369 1529.64 449.865 1528.57 448.857C1527.56 447.849 1527.06 446.575 1527.06 445.034C1527.06 443.433 1527.56 442.129 1528.57 441.121C1529.64 440.113 1530.94 439.61 1532.48 439.61C1534.03 439.61 1535.3 440.113 1536.31 441.121C1537.32 442.129 1537.82 443.433 1537.82 445.034C1537.82 446.575 1537.32 447.849 1536.31 448.857C1535.3 449.865 1534.03 450.369 1532.48 450.369ZM1550.72 500.607V457.126H1557.57V464.506H1558.81C1559.76 462.432 1561.36 460.564 1563.62 458.905C1565.93 457.186 1569.31 456.326 1573.75 456.326C1577.01 456.326 1579.92 457.008 1582.47 458.371C1585.07 459.735 1587.15 461.75 1588.69 464.418C1590.23 467.085 1591 470.375 1591 474.287V500.607H1583.98V474.821C1583.98 470.494 1582.88 467.352 1580.69 465.396C1578.55 463.439 1575.65 462.461 1571.97 462.461C1567.76 462.461 1564.33 463.825 1561.66 466.552C1559.05 469.278 1557.75 473.339 1557.75 478.733V500.607H1550.72ZM1623.56 500.607L1643.65 469.219L1623.82 438.365H1632.63L1648.45 464.062H1649.61L1665.53 438.365H1674.24L1654.5 469.219L1674.59 500.607H1665.88L1649.61 474.376H1648.45L1632.27 500.607H1623.56ZM1684.53 500.607V438.365H1709.69C1713.54 438.365 1716.92 439.046 1719.83 440.41C1722.79 441.714 1725.1 443.611 1726.76 446.101C1728.42 448.531 1729.25 451.465 1729.25 454.903V455.881C1729.25 459.972 1728.27 463.202 1726.32 465.573C1724.36 467.945 1722.05 469.545 1719.38 470.375V471.62C1721.52 471.679 1723.26 472.39 1724.63 473.754C1726.05 475.058 1726.76 477.044 1726.76 479.711V500.607H1719.38V480.601C1719.38 478.822 1718.88 477.459 1717.87 476.51C1716.92 475.562 1715.47 475.088 1713.51 475.088H1692V500.607H1684.53ZM1692 468.33H1708.98C1713.07 468.33 1716.21 467.352 1718.4 465.396C1720.66 463.38 1721.78 460.594 1721.78 457.037V456.415C1721.78 452.858 1720.69 450.102 1718.49 448.146C1716.3 446.13 1713.13 445.122 1708.98 445.122H1692V468.33ZM1763.46 500.607V438.365H1770.93V493.849H1802.4V500.607H1763.46ZM1825.6 501.852C1822.58 501.852 1819.82 501.318 1817.33 500.251C1814.84 499.184 1812.89 497.643 1811.46 495.628C1810.04 493.612 1809.33 491.152 1809.33 488.247C1809.33 485.283 1810.04 482.853 1811.46 480.956C1812.89 479 1814.84 477.548 1817.33 476.599C1819.82 475.591 1822.61 475.088 1825.69 475.088H1840.36V471.887C1840.36 468.804 1839.44 466.374 1837.61 464.595C1835.83 462.817 1833.16 461.928 1829.6 461.928C1826.11 461.928 1823.38 462.787 1821.42 464.506C1819.47 466.166 1818.13 468.419 1817.42 471.264L1810.84 469.13C1811.55 466.7 1812.68 464.506 1814.22 462.55C1815.76 460.535 1817.81 458.934 1820.36 457.749C1822.96 456.504 1826.08 455.881 1829.69 455.881C1835.26 455.881 1839.59 457.334 1842.67 460.238C1845.76 463.084 1847.3 467.115 1847.3 472.331V491.982C1847.3 493.76 1848.13 494.649 1849.79 494.649H1853.79V500.607H1847.65C1845.7 500.607 1844.13 500.073 1842.94 499.006C1841.76 497.88 1841.16 496.398 1841.16 494.561V494.116H1840.1C1839.44 495.242 1838.55 496.428 1837.43 497.673C1836.36 498.858 1834.88 499.836 1832.98 500.607C1831.09 501.437 1828.63 501.852 1825.6 501.852ZM1826.4 495.805C1830.55 495.805 1833.9 494.59 1836.45 492.16C1839.06 489.67 1840.36 486.202 1840.36 481.756V480.778H1825.96C1823.17 480.778 1820.86 481.401 1819.02 482.646C1817.24 483.831 1816.35 485.639 1816.35 488.07C1816.35 490.5 1817.27 492.397 1819.11 493.76C1821.01 495.124 1823.44 495.805 1826.4 495.805ZM1887.51 501.852C1883 501.852 1879.47 500.992 1876.92 499.273C1874.44 497.554 1872.63 495.598 1871.5 493.405H1870.26V500.607H1863.41V438.365H1870.43V463.973H1871.68C1872.39 462.61 1873.4 461.335 1874.7 460.15C1876.01 458.905 1877.7 457.897 1879.77 457.126C1881.9 456.296 1884.48 455.881 1887.51 455.881C1891.3 455.881 1894.74 456.8 1897.82 458.638C1900.96 460.416 1903.45 462.995 1905.29 466.374C1907.13 469.693 1908.05 473.665 1908.05 478.289V479.445C1908.05 484.068 1907.1 488.07 1905.2 491.448C1903.36 494.827 1900.87 497.406 1897.73 499.184C1894.65 500.963 1891.24 501.852 1887.51 501.852ZM1885.64 495.628C1890.14 495.628 1893.79 494.205 1896.58 491.36C1899.42 488.455 1900.84 484.424 1900.84 479.267V478.466C1900.84 473.309 1899.42 469.308 1896.58 466.463C1893.79 463.558 1890.14 462.106 1885.64 462.106C1881.19 462.106 1877.52 463.558 1874.61 466.463C1871.77 469.308 1870.35 473.309 1870.35 478.466V479.267C1870.35 484.424 1871.77 488.455 1874.61 491.36C1877.52 494.205 1881.19 495.628 1885.64 495.628Z" fill="white"/>
<defs>
<linearGradient id="paint0_linear_1_294" x1="441.268" y1="73.1943" x2="124.093" y2="544.89" gradientUnits="userSpaceOnUse">
<stop stop-color="white" stop-opacity="0.4"/>
<stop offset="1" stop-color="white" stop-opacity="0.9"/>
</linearGradient>
<clipPath id="clip0_1_294">
<rect width="559.757" height="622.216" fill="white"/>
</clipPath>
</defs>
</svg>
