<svg width="500" height="556" viewBox="0 0 500 556" fill="none" xmlns="http://www.w3.org/2000/svg">
<g clip-path="url(#clip0_1_208)">
<path d="M499.516 173.795V382.005C499.516 406.724 486.323 429.573 464.917 441.932L356.202 504.697C356.183 504.252 356.173 503.816 356.163 503.37C349.916 498.305 336.627 486.12 329.043 465.595C320.412 442.261 324.258 421.969 326.137 414.259C330.738 413.746 341.663 411.906 352.289 403.605C362.653 395.507 367.099 385.657 368.755 381.327C373.278 360.337 377.792 339.358 382.315 318.368C383.148 313.564 383.768 307.278 383.284 299.965C382.848 293.427 381.637 287.848 380.378 283.499C388.65 280.012 397.832 275.585 407.499 269.938C416.342 264.776 424.081 259.487 430.745 254.441C433.971 251.874 441.322 245.336 445.274 234.1C448.703 224.346 447.88 215.89 447.211 211.822C441.72 191.482 436.237 171.141 430.745 150.801C428.178 143.526 422.754 131.274 411.373 119.805C403.712 112.086 395.876 107.262 390.064 104.308C369.598 95.6777 345.286 87.28 317.419 81.0616C303.801 78.0202 290.831 75.8311 278.675 74.2814C265.88 72.4701 248.959 71.3078 229.277 73.3128C209.953 75.279 193.855 79.7055 181.816 83.9674C166.531 89.3431 115.709 109.374 84.9558 163.392C70.698 188.44 65.4579 212.539 63.5207 229.799C80.2484 213.236 99.9013 195.579 122.731 177.921C149.416 157.271 175.113 140.747 198.282 127.554C198.107 138.49 198.902 152.06 202.156 167.267C204.277 177.195 207.048 185.951 209.905 193.419C184.557 203.25 156.787 215.6 127.574 231.194C104.105 243.718 82.9702 256.61 64.1406 269.183C65.1867 276.912 66.8721 285.31 69.4582 294.153C75.0955 313.428 83.1639 328.393 89.7988 338.709C98.9908 350.719 106.856 359.921 112.077 365.829C130.17 386.306 142.965 397.299 144.04 415.228C144.166 417.339 144.098 419.054 144.04 420.071C142.578 427.035 138.849 440.092 128.543 453.003C116.823 467.697 102.826 474.361 95.9591 477.083L35.0827 441.932C13.6767 429.573 0.484375 406.724 0.484375 382.005V173.795C0.484375 149.067 13.6767 126.227 35.0827 113.868L215.397 9.76308C236.813 -2.60592 263.188 -2.60592 284.603 9.76308L464.917 113.868C486.323 126.227 499.516 149.067 499.516 173.795Z" fill="url(#paint0_linear_1_208)"/>
<path d="M356.163 355.175C355.195 359.05 351.32 381.328 347.446 385.202C343.571 389.076 337.799 390.587 330.011 392.951C318.688 396.389 303.568 398.104 259.303 387.139C248.252 384.398 233.297 380.359 215.716 374.547C223.301 384.96 232.861 396.602 244.774 408.448C254.877 418.493 264.776 426.813 273.832 433.632C279.712 437.574 289.049 444.897 297.079 456.878C305.012 468.714 308.247 479.999 309.67 486.905C310.058 491.535 311.385 499.661 316.451 508.214C319.957 514.122 324.044 518.219 327.105 520.806C317.08 519.614 305.186 517.338 292.236 513.057C270.171 505.763 253.347 495.399 241.869 486.905C234.217 481.142 223.911 474.642 210.873 469.47C184.847 459.145 161.388 459.464 147.915 460.753C154.52 450.398 164.478 431.801 168.255 406.511C172.875 375.574 165.824 350.807 161.475 338.709C158.298 339.155 138.083 341.644 120.794 327.086C102.342 311.55 102.342 289.33 102.391 286.405C102.265 284.245 102.003 275.615 108.202 268.002C116.455 257.86 129.075 258.248 130.48 258.316C134.025 258.742 138.829 259.749 144.04 262.19C153.319 266.539 158.84 273.077 161.475 276.719C164.662 276.913 173.941 277.039 182.784 270.907C196.248 261.589 197.226 245.753 197.313 243.787C204.645 251.158 218.148 262.481 237.994 268.002C284.303 280.884 323.318 250.518 328.074 246.692C329.643 245.346 341.382 235.495 351.32 238.944C362.353 242.779 370.053 262.626 361.006 285.436C361.975 288.342 364.59 293.466 365.849 299.965C367.786 310.62 364.91 325.672 356.163 355.175Z" stroke="black" stroke-width="0.968598" stroke-miterlimit="10"/>
<path d="M365.849 299.965C367.786 310.62 364.91 325.672 356.163 355.175C355.195 359.05 351.32 381.328 347.446 385.202C343.571 389.076 337.799 390.587 330.011 392.951C318.688 396.389 303.568 398.104 259.303 387.139C248.252 384.398 233.297 380.359 215.716 374.547C223.301 384.96 232.861 396.602 244.774 408.448C254.877 418.493 264.776 426.813 273.832 433.632C279.712 437.574 289.049 444.897 297.079 456.878C305.012 468.714 308.247 479.999 309.67 486.905C310.058 491.535 311.385 499.661 316.451 508.214C319.957 514.122 324.044 518.219 327.105 520.806C317.08 519.614 305.186 517.338 292.236 513.057C270.171 505.763 253.347 495.399 241.869 486.905C234.217 481.142 223.911 474.642 210.873 469.47C184.847 459.145 161.388 459.464 147.915 460.753C154.52 450.398 164.478 431.801 168.255 406.511C172.875 375.574 165.824 350.807 161.475 338.709C158.298 339.155 138.083 341.644 120.794 327.086C102.342 311.55 102.342 289.33 102.391 286.405C102.265 284.245 102.003 275.615 108.202 268.002C116.455 257.86 129.075 258.248 130.48 258.316C134.025 258.742 138.829 259.749 144.04 262.19C153.319 266.539 158.84 273.077 161.475 276.719C164.662 276.913 173.941 277.039 182.784 270.907C196.248 261.589 197.226 245.753 197.313 243.787C204.645 251.158 218.148 262.481 237.994 268.002C284.303 280.884 323.318 250.518 328.074 246.692C329.643 245.346 341.382 235.495 351.32 238.944C362.353 242.779 370.053 262.626 361.006 285.436C361.975 288.342 364.59 293.466 365.849 299.965Z" stroke="black" stroke-width="0.968598" stroke-miterlimit="10"/>
<path d="M427.84 220.539C423.326 226.787 411.16 228.114 398.782 221.508C389.725 217.488 379.032 213.653 366.818 210.853C332.152 202.921 302.203 207.289 283.518 211.822C280.351 212.219 261.948 214.205 246.712 201.167C236.842 192.721 233.374 182.319 232.183 177.921C230.352 172.623 228.618 166.453 227.34 159.518C225.286 148.35 225.015 138.431 225.403 130.46C225.519 127.486 226.381 113.374 237.994 102.37C251.865 89.2362 269.59 91.3962 271.895 91.7158C284.216 92.3842 297.883 93.8371 312.576 96.5588C338.176 101.305 359.98 108.608 377.472 115.931C384.117 118.372 394.597 123.302 403.625 133.366C407.053 137.192 410.124 141.589 413.311 147.895C424.604 170.23 428.469 198.823 429.777 210.853C430.455 216.413 428.653 219.406 427.84 220.539Z" stroke="black" stroke-width="0.968598" stroke-miterlimit="10"/>
<path d="M427.84 220.539C423.326 226.787 411.16 228.114 398.782 221.508C389.725 217.488 379.032 213.653 366.818 210.853C332.152 202.921 302.203 207.289 283.518 211.822C280.351 212.219 261.948 214.205 246.712 201.167C236.842 192.721 233.374 182.319 232.183 177.921C230.352 172.623 228.618 166.453 227.34 159.518C225.286 148.35 225.015 138.431 225.403 130.46C225.519 127.486 226.381 113.374 237.994 102.37C251.865 89.2362 269.59 91.3962 271.895 91.7158C284.216 92.3842 297.883 93.8371 312.576 96.5588C338.176 101.305 359.98 108.608 377.472 115.931C384.117 118.372 394.597 123.302 403.625 133.366C407.053 137.192 410.124 141.589 413.311 147.895C424.604 170.23 428.469 198.823 429.777 210.853C430.455 216.413 428.653 219.406 427.84 220.539Z" stroke="black" stroke-width="0.968598" stroke-miterlimit="10"/>
<path d="M209.905 193.419C184.556 203.251 156.787 215.6 127.574 231.195C104.105 243.719 82.9697 256.611 64.1402 269.183C63.9271 267.536 63.7237 265.832 63.5493 264.079C63.036 259.032 62.7067 253.54 62.6776 247.661C62.6486 241.346 62.9682 235.486 63.4815 230.178C63.4912 230.052 63.5106 229.926 63.5203 229.8C80.248 213.237 99.9008 195.579 122.731 177.922C149.416 157.271 175.112 140.747 198.281 127.555C198.107 138.49 198.901 152.06 202.156 167.267C204.277 177.195 207.047 185.951 209.905 193.419Z" fill="#FEFFFF"/>
<path d="M447.211 211.823C441.719 191.482 436.237 171.141 430.745 150.801C428.178 143.527 422.754 131.274 411.373 119.806C403.711 112.086 395.876 107.262 390.064 104.308C369.597 95.678 345.286 87.2802 317.419 81.0618C303.801 78.0204 290.831 75.8314 278.675 74.2816C265.88 72.4704 248.959 71.308 229.277 73.313C209.953 75.2793 193.855 79.7058 181.815 83.9676C166.531 89.3433 115.709 109.374 84.9556 163.393C70.6978 188.441 65.4577 212.539 63.5205 229.8C80.2482 213.237 99.901 195.579 122.731 177.922C149.416 157.271 175.113 140.747 198.282 127.555C198.107 138.49 198.901 152.06 202.156 167.267C204.277 177.195 207.047 185.951 209.905 193.419C184.557 203.25 156.787 215.6 127.574 231.195C104.105 243.719 82.97 256.611 64.1404 269.183C65.1865 276.912 66.8719 285.31 69.458 294.153C75.0953 313.428 83.1637 328.393 89.7986 338.709C98.9906 350.72 106.856 359.921 112.076 365.83C130.17 386.306 142.965 397.299 144.04 415.228C144.166 417.34 144.098 419.054 144.04 420.071C142.577 427.035 138.848 440.092 128.542 453.003C116.822 467.697 102.826 474.361 95.9589 477.083L206.921 541.146L215.397 546.037C236.812 558.397 263.187 558.397 284.603 546.037L293.078 541.146L356.202 504.698C356.182 504.252 356.173 503.816 356.163 503.371C349.916 498.305 336.626 486.12 329.042 465.595C320.412 442.262 324.257 421.97 326.136 414.26C330.737 413.746 341.663 411.906 352.289 403.605C362.653 395.508 367.098 385.657 368.755 381.327C373.278 360.338 377.792 339.358 382.315 318.368C383.148 313.564 383.768 307.278 383.284 299.965C382.848 293.427 381.637 287.848 380.378 283.499C388.65 280.012 397.832 275.585 407.499 269.938C416.342 264.776 424.081 259.487 430.745 254.441C433.97 251.874 441.322 245.336 445.274 234.1C448.703 224.347 447.88 215.891 447.211 211.823ZM356.163 355.175C355.194 359.049 351.32 381.327 347.446 385.202C343.571 389.076 337.798 390.587 330.011 392.95C318.688 396.389 303.568 398.103 259.303 387.139C248.251 384.398 233.296 380.359 215.716 374.547C223.3 384.959 232.86 396.602 244.774 408.448C254.877 418.492 264.776 426.813 273.832 433.632C279.712 437.574 289.049 444.896 297.079 456.878C305.011 468.714 308.246 479.998 309.67 486.904C310.058 491.534 311.385 499.661 316.451 508.214C319.957 514.122 324.044 518.219 327.105 520.805C317.08 519.614 305.186 517.338 292.236 513.057C270.171 505.763 253.346 495.399 241.868 486.904C234.217 481.141 223.911 474.642 210.873 469.47C184.847 459.144 161.388 459.464 147.914 460.752C154.52 450.398 164.477 431.801 168.255 406.511C172.875 375.574 165.824 350.807 161.475 338.709C158.298 339.154 138.083 341.644 120.794 327.086C102.342 311.549 102.342 289.33 102.39 286.405C102.264 284.245 102.003 275.614 108.202 268.001C116.454 257.86 129.075 258.247 130.48 258.315C134.025 258.741 138.829 259.749 144.04 262.19C153.319 266.539 158.84 273.077 161.475 276.719C164.662 276.912 173.941 277.038 182.784 270.907C196.247 261.589 197.226 245.753 197.313 243.786C204.645 251.157 218.147 262.48 237.994 268.001C284.303 280.884 323.318 250.518 328.074 246.692C329.643 245.346 341.382 235.495 351.32 238.943C362.352 242.779 370.053 262.626 361.006 285.436C361.975 288.342 364.59 293.466 365.849 299.965C367.786 310.62 364.909 325.672 356.163 355.175ZM427.839 220.54C423.326 226.787 411.16 228.114 398.781 221.509C389.725 217.489 379.032 213.653 366.818 210.854C332.151 202.921 302.202 207.29 283.518 211.823C280.351 212.22 261.947 214.205 246.711 201.168C236.841 192.722 233.374 182.319 232.182 177.922C230.352 172.623 228.618 166.453 227.339 159.518C225.286 148.35 225.015 138.432 225.402 130.46C225.519 127.487 226.381 113.374 237.994 102.371C251.864 89.2368 269.59 91.3968 271.895 91.7164C284.216 92.3847 297.882 93.8376 312.576 96.5594C338.176 101.306 359.979 108.609 377.472 115.931C384.117 118.372 394.597 123.302 403.624 133.366C407.053 137.192 410.124 141.59 413.31 147.895C424.604 170.231 428.469 198.824 429.776 210.854C430.454 216.414 428.653 219.407 427.839 220.54Z" fill="#0E0F27"/>
<path d="M327.105 520.806C317.08 519.614 305.186 517.338 292.236 513.057C270.171 505.763 253.347 495.399 241.869 486.905C234.217 481.142 223.911 474.642 210.873 469.47C184.847 459.145 161.388 459.464 147.915 460.753C154.52 450.398 164.478 431.801 168.255 406.511C172.875 375.574 165.824 350.807 161.475 338.709C158.298 339.155 138.083 341.644 120.794 327.086C102.342 311.55 102.342 289.33 102.391 286.405C102.265 284.245 102.003 275.615 108.202 268.002C116.455 257.86 129.075 258.248 130.48 258.316C134.025 258.742 138.829 259.749 144.04 262.19C153.319 266.539 158.84 273.077 161.475 276.719C164.662 276.913 173.941 277.039 182.784 270.907C196.248 261.589 197.226 245.753 197.313 243.787C204.645 251.158 218.148 262.481 237.994 268.002C284.303 280.884 323.318 250.518 328.074 246.692C329.643 245.346 341.382 235.495 351.32 238.944C362.353 242.779 370.053 262.626 361.006 285.436C361.975 288.342 364.59 293.466 365.849 299.965C367.786 310.62 364.91 325.672 356.163 355.175C355.195 359.05 351.32 381.328 347.446 385.202C343.571 389.076 337.799 390.587 330.011 392.951C318.688 396.389 303.568 398.104 259.303 387.139C248.252 384.398 233.297 380.359 215.716 374.547C223.301 384.96 232.861 396.602 244.774 408.448C254.877 418.493 264.776 426.813 273.832 433.632C279.712 437.574 289.049 444.897 297.079 456.878C305.012 468.714 308.247 479.999 309.67 486.905C310.058 491.535 311.385 499.661 316.451 508.214C319.957 514.122 324.044 518.219 327.105 520.806Z" fill="#FEFFFF"/>
<path d="M232.183 177.921C230.352 172.623 228.618 166.453 227.34 159.518C225.286 148.35 225.015 138.431 225.403 130.46C225.519 127.486 226.381 113.374 237.994 102.37C251.865 89.2362 269.59 91.3962 271.895 91.7158C284.216 92.3842 297.883 93.8371 312.576 96.5588C338.176 101.305 359.98 108.608 377.472 115.931C384.117 118.372 394.597 123.302 403.625 133.366C407.053 137.192 410.124 141.589 413.311 147.895C424.604 170.23 428.469 198.823 429.777 210.853C430.455 216.413 428.653 219.406 427.84 220.539C423.326 226.787 411.16 228.114 398.782 221.508C389.725 217.488 379.032 213.653 366.818 210.853C332.152 202.921 302.203 207.289 283.518 211.822C280.351 212.219 261.948 214.205 246.712 201.167C236.842 192.721 233.374 182.319 232.183 177.921Z" fill="#FEFFFF"/>
<path d="M167.567 141.415C167.567 169.989 179.998 198.24 185.002 209.217L223.746 199.531L204.858 129.792L200.015 125.434L167.567 141.415Z" fill="#0E0F27"/>
<path d="M68.7701 251.835L65.8643 268.302L188.876 207.764L185.486 192.751L68.7701 251.835Z" fill="#0E0F27"/>
<path d="M62.959 236.338L171.926 145.29V138.994C137.541 164.016 68.0926 214.642 65.3805 216.966C63.4433 227.137 63.4433 231.495 62.959 236.338Z" fill="#0E0F27"/>
<path d="M134.476 191.578C132.97 189.241 133.532 186.137 135.761 184.475L149.459 174.264C152.458 172.029 156.722 172.8 158.747 175.944C160.772 179.088 159.711 183.29 156.437 185.096L141.475 193.346C139.04 194.688 135.981 193.916 134.476 191.578Z" fill="#0E0F27"/>
</g>
<defs>
<linearGradient id="paint0_linear_1_208" x1="394.16" y1="65.38" x2="110.845" y2="486.72" gradientUnits="userSpaceOnUse">
<stop stop-color="#686A86" stop-opacity="0.3"/>
<stop offset="1" stop-color="#686A86"/>
</linearGradient>
<clipPath id="clip0_1_208">
<rect width="500" height="555.791" fill="white"/>
</clipPath>
</defs>
</svg>
